<?xml version="1.0" encoding="utf-8"?>
<!-- Generator: Adobe Illustrator 18.0.0, SVG Export Plug-In . SVG Version: 6.00 Build 0)  -->
<!DOCTYPE svg PUBLIC "-//W3C//DTD SVG 1.1//EN" "http://www.w3.org/Graphics/SVG/1.1/DTD/svg11.dtd">
<svg version="1.1" id="Layer_1" xmlns="http://www.w3.org/2000/svg" xmlns:xlink="http://www.w3.org/1999/xlink" x="0px" y="0px"
	 viewBox="0 0 4096 2160" enable-background="new 0 0 4096 2160" xml:space="preserve">
<rect fill="#2F93CC" width="4096" height="2160"/>
<polygon fill="#5FCBEB" points="428.2,1104.2 733.7,995.5 975,1143.5 636.6,1266.4 "/>
<polygon fill="#4DBAE5" points="733.7,995.5 1111,939.1 1299,1091 975,1143.5 "/>
<polygon fill="#5FCBEB" points="359,1393.6 155.9,1249.2 428.2,1104.2 "/>
<polygon fill="#61CBEA" points="1111,939.1 1299,1091 1601,1091 1485,928.2 "/>
<polygon fill="#7BD0E6" points="428.2,1104.2 359,1393.6 636.6,1266.4 "/>
<polygon fill="#4DBAE5" points="0,1359 155.9,1249.2 359,1393.6 97,1567 0,1453 "/>
<polygon fill="#208CBC" points="0,1661 97,1567 0,1453 "/>
<polygon fill="#4DBAE5" points="1601,1091 1866.4,939.1 1953,1091 "/>
<polygon fill="#7BD0E6" points="1601,1091 1866.4,939.1 1485,928.2 "/>
<polygon fill="#4DA4D5" points="359,1393.6 541,1585 263,1769 97,1567 "/>
<polygon fill="#4DBAE5" points="359,1393.6 636.6,1266.4 541,1585 "/>
<polygon fill="#4DA4D5" points="811,1425.7 636.6,1266.4 541,1585 "/>
<polygon fill="#4DBAE5" points="811,1425.7 975,1143.5 636.6,1266.4 "/>
<polygon fill="#7BD0E6" points="1866.4,939.1 2305,1113 1953,1091 "/>
<polygon fill="#90D6E6" points="1866.4,939.1 2305,1113 2207,953.2 "/>
<polygon fill="#4DA4D5" points="975,1143.5 1111,1305 811,1425.7 "/>
<polygon fill="#61CBEA" points="1299,1091 1371,1242.9 975,1143.5 "/>
<polygon fill="#4DBAE5" points="1111,1305 1371,1242.9 975,1143.5 "/>
<polygon fill="#4DBAE5" points="1371,1242.9 1601,1091 1299,1091 "/>
<polygon fill="#4DA4D5" points="1653,1224 1601,1091 1371,1242.9 "/>
<polygon fill="#2F93CC" points="263,1769 0,2051 0,1661 97,1567 "/>
<polygon fill="#4DBAE5" points="1653,1224 1967,1220 1601,1091 "/>
<polygon fill="#61CBEA" points="1967,1220 1953,1091 1601,1091 "/>
<polygon fill="#61CBEA" points="2305,1113 2331,1224.2 1967,1220 "/>
<polygon fill="#7BD0E6" points="2055.5,835.8 1761,835.8 1866.4,939.1 "/>
<polygon fill="#61CBEA" points="1485,928.2 1337,835.8 1866.4,939.1 "/>
<polygon fill="#9EDAE7" points="1399,835.8 1761,835.8 1866.4,939.1 1337,835.8 "/>
<polygon fill="#7BD0E6" points="1111,939.1 933,855 1337,835.8 1485,928.2 "/>
<polygon fill="#9EDAE7" points="733.7,995.5 541,917 933,855 1111,939.1 "/>
<polygon fill="#5FCBEB" points="428.2,1104.2 541,917 207,1026.1 "/>
<polygon fill="#7BD0E6" points="733.7,995.5 541,917 428.2,1104.2 "/>
<polygon fill="#4DBAE5" points="155.9,1249.2 0,1181 0,1113 207,1026.1 428.2,1104.2 "/>
<polygon fill="#4DA4D5" points="0,1359 155.9,1249.2 0,1181 "/>
<polygon fill="#61CBEA" points="207,1026.1 0,995.5 0,1113 "/>
<polygon fill="#4DBAE5" points="541,917 214.1,865 0,953.2 0,995.5 207,1026.1 "/>
<polygon fill="#5FCBEB" points="933,855 649,793 214.1,865 541,917 "/>
<polygon fill="#4DBAE5" points="1337,835.8 933,855 649,793 1053,761 "/>
<polygon fill="#61CBEA" points="1761,835.8 1423,761 1053,761 1337,835.8 "/>
<polygon fill="#5FCBEB" points="2207,953.2 2573,965.6 2305,1113 "/>
<path fill="#5FCBEB" d="M1761,835.8"/>
<polygon fill="#9EDAE7" points="1866.4,939.1 2055.5,835.8 2207,953.2 "/>
<polygon fill="#7BD0E6" points="2055.5,835.8 2413,855 2573,965.6 2207,953.2 "/>
<polygon fill="#7BD0E6" points="2573,965.6 2653,1130.9 2305,1113 "/>
<polygon fill="#5FCBEB" points="2671,1242.8 2305,1113 2653,1130.9 "/>
<polygon fill="#4DA4D5" points="2331,1224.2 2671,1242.8 2305,1113 "/>
<polygon fill="#4DBAE5" points="263,1769 451,2007 283,2160 0,2160 0,2051 "/>
<polygon fill="#61CBEA" points="541,1585 451,2007 263,1769 "/>
<polygon fill="#61CBEA" points="811,1425.7 961,1651 701.6,1815 541,1585 "/>
<polygon fill="#4DA4D5" points="451,2007 701.6,1815 541,1585 "/>
<path fill="#4DBAE5" d="M811,1425.7c0,0,402,99.3,408,99.3s-108-220-108-220L811,1425.7z"/>
<polygon fill="#7BD0E6" points="961,1651 1219,1525 811,1425.7 "/>
<polygon fill="#7BD0E6" points="1219,1525 1371,1242.9 1111,1305 "/>
<polygon fill="#61CBEA" points="1653,1224 1685,1453 1435,1465 1371,1242.9 "/>
<polygon fill="#4DBAE5" points="1219,1525 1371,1242.9 1435,1465 "/>
<polygon fill="#7BD0E6" points="1685,1453 1967,1220 1653,1224 "/>
<polygon fill="#61CBEA" points="1685,1453 1995,1453 1967,1220 "/>
<polygon fill="#61CBEA" points="1995,1453 2351,1453 2331,1224.2 "/>
<polygon fill="#4DBAE5" points="1967,1220 2331,1224.2 1995,1453 "/>
<polygon fill="#4DBAE5" points="2351,1453 2671,1453 2671,1242.8 2331,1224.2 "/>
<polygon fill="#9EDAE7" points="2413,855 2753,855 2929,962.1 2573,965.6 "/>
<polygon fill="#7BD0E6" points="2573,965.6 3019,1130.9 2929,962.1 "/>
<polygon fill="#5FCBEB" points="2653,1130.9 3019,1130.9 2573,965.6 "/>
<polygon fill="#4DBAE5" points="2671,1242.8 3019,1130.9 2653,1130.9 "/>
<polygon fill="#5FCBEB" points="3019,1130.9 3047,1248.9 2671,1242.8 "/>
<polygon fill="#4DA4D5" points="2671,1453 3055,1453 3047,1248.9 2671,1242.8 "/>
<polygon fill="#4DA4D5" points="451,2007 595,2160 283,2160 "/>
<polygon fill="#4DBAE5" points="451,2007 701.6,1815 865,1986.6 676,2160 595,2160 "/>
<polygon fill="#4DA4D5" points="961,1651 865,1986.6 701.6,1815 "/>
<polygon fill="#4DBAE5" points="1137,1855 961,1651 865,1986.6 "/>
<polygon fill="#4DBAE5" points="1219,1525 1371,1721 961,1651 "/>
<polygon fill="#61CBEA" points="1137,1855 1371,1721 961,1651 "/>
<polygon fill="#61CBEA" points="1371,1721 1435,1465 1219,1525 "/>
<polygon fill="#7BD0E6" points="1551,1671 1435,1465 1371,1721 "/>
<polygon fill="#4DBAE5" points="1551,1671 1685,1453 1435,1465 "/>
<polygon fill="#61CBEA" points="1551,1671 1729,1661 1685,1453 "/>
<polygon fill="#4DBAE5" points="1685,1453 2065,1661 1729,1661 "/>
<polygon fill="#4DBAE5" points="2351,1453 2441,1661 1995,1453 "/>
<polygon fill="#61CBEA" points="2065,1661 2441,1661 1995,1453 "/>
<polygon fill="#4DBAE5" points="1995,1453 1685,1453 2065,1661 "/>
<polygon fill="#4DBAE5" points="1953,1091 2305,1113 1967,1220 "/>
<polygon fill="#4DA4D5" points="2441,1661 2671,1453 2351,1453 "/>
<polygon fill="#4DA4D5" points="3055,1453 3169,1641 2767,1651 "/>
<polygon fill="#2F93CC" points="2929,1827.1 2715.6,1987.5 2573,1848.1 "/>
<polygon fill="#237DBA" points="2671,1453 2767,1651 3055,1453 "/>
<polygon fill="#4DBAE5" points="2441,1661 2767,1651 2671,1453 "/>
<path fill="#4DBAE5" d="M2055.5,835.8c0,0-256.5-66.8-262.5-74.8s-370,0-370,0l338,74.8H2055.5z"/>
<polygon fill="#4DA4D5" points="214.1,865 0,793 0,953.2 "/>
<polygon fill="#4DA4D5" points="649,793 359,685 214.1,865 "/>
<polygon fill="#4DBAE5" points="0,793 0,743 359,685 214.1,865 "/>
<polygon fill="#2F93CC" points="359,685 1053,761 649,793 "/>
<polygon fill="#4DBAE5" points="801.4,659 1048.6,761 354.6,685 "/>
<polygon fill="#4DA4D5" points="801.4,659 1233,651.5 1423,761 1048.6,761 "/>
<polygon fill="#2F93CC" points="1233,651.5 1621,651.5 1793,761 1423,761 "/>
<polygon fill="#9EDAE7" points="1777,761 2163,775 2413,855 2055.5,835.8 "/>
<polygon fill="#4DA4D5" points="1621,651.5 1967,659 2163,775 1793,761 "/>
<polygon fill="#7BD0E6" points="2163,775 2479,775 2753,855 2413,855 "/>
<path fill="#4DBAE5" d="M1967,659c0,0,312-8.9,318-7.5c6,1.5,194,123.5,194,123.5h-316L1967,659z"/>
<polygon fill="#4DA4D5" points="865,1986.6 1112.2,2160 676,2160 "/>
<polygon fill="#4DA4D5" points="1137,1855 1371,1987.5 865,1986.6 "/>
<polygon fill="#2F93CC" points="1112.2,2160 1371,1987.5 865,1986.6 "/>
<polygon fill="#2F93CC" points="1371,1721 1371,1987.5 1137,1855 "/>
<polygon fill="#4DA4D5" points="1371,1987.5 1601,1875 1371,1721 "/>
<polygon fill="#2F93CC" points="1729,1661 1794.7,1855 1601,1875 "/>
<polygon fill="#4DA4D5" points="359,685 179.5,522.7 0,536 0,743 "/>
<polygon fill="#4DA4D5" points="801.4,659 658,486 359,685 "/>
<polygon fill="#2F93CC" points="179.5,522.7 658,486 359,685 "/>
<path fill="#2F93CC" d="M658,486l575,165.5c0,0-426.3,13.9-431.6,7.5S658,486,658,486z"/>
<polygon fill="#2F93CC" points="1089.6,486 1233,651.5 658,486 "/>
<polygon fill="#4DA4D5" points="1089.6,486 1505.1,486 1233,651.5 "/>
<polygon fill="#4DBAE5" points="1505.1,486 1621,651.5 1233,651.5 "/>
<polygon fill="#4DA4D5" points="1505.1,486 1967,659 1621,651.5 "/>
<polygon fill="#2F93CC" points="1967,659 1848.6,492.1 1505.1,486 "/>
<polygon fill="#4DA4D5" points="1848.6,492.1 2163,492.1 1967,659 "/>
<polygon fill="#7BD0E6" points="2163,492.1 2285,651.5 1967,659 "/>
<polygon fill="#2F93CC" points="1371,1721 1601,1875 1601,1875 1729,1661 1551,1671 "/>
<polygon fill="#4DA4D5" points="1551,1671 1601,1875 1794.7,1855 "/>
<polygon fill="#2F93CC" points="1794.7,1855 2065,1661 1729,1661 "/>
<polygon fill="#2F93CC" points="1794.7,1855 2163,1854.2 2065,1661 "/>
<polygon fill="#2F93CC" points="2441,1661 2573,1848.1 2163,1854.2 2065,1661 "/>
<polygon fill="#4DA4D5" points="2767,1651 2929,1827.1 2573,1848.1 2441,1661 "/>
<polygon fill="#2F93CC" points="179.5,522.7 77.9,286.6 0,286.6 0,536 "/>
<polygon fill="#2F93CC" points="658,486 565.5,286.6 77.9,286.6 "/>
<polygon fill="#4DA4D5" points="173.2,522.7 658,486 77.9,286.6 "/>
<polygon fill="#4DA4D5" points="658,486 1032.6,279.1 1089.6,486 "/>
<polygon fill="#4DBAE5" points="565.5,286.6 1032.6,279.1 658,486 "/>
<polygon fill="#4DBAE5" points="1032.6,279.1 1505.1,486 1089.6,486 "/>
<polygon fill="#2F93CC" points="1032.6,279.1 1450,286.6 1505.1,486 "/>
<polygon fill="#2F93CC" points="1821.6,286.6 1505.1,486 1848.6,492.1 "/>
<polygon fill="#4DA4D5" points="1450,286.6 1821.6,286.6 1505.1,486 "/>
<polygon fill="#4DBAE5" points="1821.6,286.6 2163,492.1 1848.6,492.1 "/>
<polygon fill="#208CBC" points="77.9,286.6 35.2,0 0,0 0,286.6 "/>
<polygon fill="#2F93CC" points="565.5,286.6 541,0 35.2,0 77.9,286.6 "/>
<polygon fill="#2F93CC" points="1032.6,279.1 1016.3,0 541,0 "/>
<polygon fill="#4DA4D5" points="565.5,286.6 541,0 1032.6,279.1 "/>
<polygon fill="#4DA4D5" points="1450,286.6 1435,0 1016.3,0 "/>
<polygon fill="#4DBAE5" points="1032.6,279.1 1016.3,0 1450,286.6 "/>
<polygon fill="#237DBA" points="1371,1985.6 1450,2158.1 1112.2,2158.1 "/>
<polygon fill="#237DBA" points="1601,1875 1897,1987.5 1659.6,2098.5 "/>
<polygon fill="#4DA4D5" points="1371,1987.5 1659.6,2098.5 1560,2160 1450,2160 "/>
<polygon fill="#2F93CC" points="1601,1875 1371,1987.5 1659.6,2098.5 "/>
<path fill="#2F93CC" d="M1794.7,1855"/>
<polygon fill="#4DA4D5" points="2441,1661 2163,1854.2 2065,1661 "/>
<polygon fill="#2F93CC" points="1897,1987.5 1794.7,1855 1601,1875 "/>
<polyline fill="#237DBA" points="2573,1848.1 2715.6,1987.5 2163,1854.2 2296.3,1983.7 1897,1987.5 1794.7,1855 "/>
<polygon fill="#4DA4D5" points="2296.3,1983.7 2715.6,1987.5 2163,1854.2 "/>
<polygon fill="#237DBA" points="1821.6,286.6 1831,0 1435,0 1450,286.6 "/>
<polygon fill="#2F93CC" points="2163,492.1 2126,286.6 1821.6,286.6 "/>
<polygon fill="#4DA4D5" points="2126,286.6 2139,0 1831,0 1821.6,286.6 "/>
<polygon fill="#237DBA" points="3132,1983.7 2929,1827.1 2715.6,1987.5 "/>
<polygon fill="#237DBA" points="1659.6,2098.5 1967,2160 1560,2160 "/>
<polygon fill="#4DA4D5" points="1897,1987.5 1967,2160 1659.6,2098.5 "/>
<polygon fill="#2F93CC" points="1897,1987.5 2505.9,2160 1967,2160 "/>
<polygon fill="#2F93CC" points="1897,1987.5 2296.3,1983.7 2505.9,2160 "/>
<polygon fill="#2F93CC" points="2929,1827.1 3335,1815 3169,1641 "/>
<polygon fill="#237DBA" points="2767,1651 3169,1641 2929,1827.1 "/>
<polygon fill="#237DBA" points="2505.9,2160 2715.6,1987.5 2296.3,1983.7 "/>
<polygon fill="#4DA4D5" points="3132,1983.7 3335,1815 2929,1827.1 "/>
<polygon fill="#7BD0E6" points="2753,855 3073,827 3217.9,925.3 2929,962.1 "/>
<polygon fill="#5FCBEB" points="3019,1130.9 3217.9,925.3 2929,962.1 "/>
<polygon fill="#4DBAE5" points="3019,1130.9 3301,1104.2 3217.9,925.3 "/>
<polygon fill="#4DA4D5" points="3301,1104.2 3335,1233 3047,1248.9 3019,1130.9 "/>
<polygon fill="#237DBA" points="3047,1248.9 3055,1453 3345,1441 3335,1233 "/>
<polygon fill="#237DBA" points="3169,1641 3345,1441 3055,1453 "/>
<polygon fill="#2F93CC" points="3449,1620.3 3345,1441 3169,1641 "/>
<polygon fill="#237DBA" points="3335,1815 3649,1796 3449,1620.3 3169,1641 "/>
<polygon fill="#237DBA" points="3335,1815 3543,1975 3132,1983.7 "/>
<polygon fill="#2F93CC" points="3649,1796 3949,1955.1 3543,1975 3335,1815 "/>
<polygon fill="#2F93CC" points="2715.6,1987.5 2985.5,2158.1 2505.9,2160 "/>
<polygon fill="#2F93CC" points="3132,1983.7 3517,2158.1 2985.5,2158.1 "/>
<polygon fill="#4DA4D5" points="2715.6,1987.5 3132,1983.7 2985.5,2158.1 "/>
<path fill="#2F93CC" d="M3543,1975c0,0,480,185,472,185s-498-1.9-498-1.9L3543,1975z"/>
<polygon fill="#4DA4D5" points="3132,1983.7 3543,1975 3517,2158.1 "/>
<polygon fill="#237DBA" points="3543,1975 3949,1955.1 4096,1987.5 4096,2160 4015,2160 "/>
<polygon fill="#4DA4D5" points="3649,1796 3985,1703 3743,1544.5 3449,1620.3 "/>
<polygon fill="#237DBA" points="3649,1796 3985,1703 4096,1753 4096,1955.1 4096,1987.5 3949,1955.1 "/>
<polygon fill="#4DA4D5" points="3301,1104.2 3627,1041.3 3507.3,829.9 3217.9,925.3 "/>
<polygon fill="#237DBA" points="3335,1233 3675,1168.6 3627,1041.3 3301,1104.2 "/>
<polygon fill="#2F93CC" points="3697,1356.8 3345,1441 3335,1233 3675,1168.6 "/>
<polygon fill="#237DBA" points="3449,1620.3 3743,1544.5 3345,1441 "/>
<polygon fill="#4DA4D5" points="3697,1356.8 3345,1441 3743,1544.5 "/>
<polygon fill="#2F93CC" points="3627,1041.3 3949,917 3815.1,713.3 3507.3,829.9 "/>
<polygon fill="#4DA4D5" points="3675,1168.6 3949,917 3627,1041.3 "/>
<polygon fill="#2F93CC" points="3985,1067.3 3949,917 3675,1168.6 "/>
<polygon fill="#237DBA" points="3697,1356.8 4015.1,1266.4 3985,1067.3 3675,1168.6 "/>
<polygon fill="#2F93CC" points="3743,1544.5 4015.1,1266.4 3697,1356.8 "/>
<polygon fill="#237DBA" points="3743,1544.5 4071,1441 4015.1,1266.4 "/>
<polygon fill="#237DBA" points="3949,917 4096,865.6 4096,597.5 3815.1,713.3 "/>
<path fill="#237DBA" d="M4071,1441"/>
<path fill="#2F93CC" d="M3743,1544.5c0,0,318.9-100.7,328-103.5l25,24v142L3743,1544.5l242,158.5l111-42v-54L3743,1544.5"/>
<polygon fill="#2F93CC" points="4096,1753 3985,1703 4096,1661 "/>
<polygon fill="#237DBA" points="3985,1067.3 4096,1033.1 4096,943 3949,917 "/>
<polygon fill="#2F93CC" points="4015.1,1266.4 4096,1242.8 4096,1033.1 3985,1067.3 "/>
<polygon fill="#4DA4D5" points="4071,1441 4096,1430 4096,1242.8 4015.1,1266.4 "/>
<polygon fill="#2F93CC" points="4096,1465 4096,1430 4071,1441 "/>
<polygon fill="#4DA4D5" points="3949,917 4096,943 4096,865.6 "/>
<polygon fill="#5FCBEB" points="3073,827 3335,757.2 3507.3,829.9 3217.9,925.3 "/>
<polygon fill="#7BD0E6" points="3815.1,713.3 3607,651.4 3335,757.2 3507.3,829.9 "/>
<polygon fill="#7BD0E6" points="4096,597.5 3872.5,540.5 3815.1,713.3 "/>
<polygon fill="#9EDAE7" points="3607,651.4 3872.5,540.5 3815.1,713.3 "/>
<polygon fill="#4DBAE5" points="3872.5,540.5 4096,427 4096,597.5 "/>
<polygon fill="#4DBAE5" points="2479,775 2767,761 3073,827 2753,855 "/>
<polygon fill="#9EDAE7" points="3335,757.2 3001.9,710 2767,761 3073,827 "/>
<polygon fill="#5FCBEB" points="3607,651.4 3274.9,597.5 3001.9,710 3335,757.2 "/>
<polygon fill="#4DBAE5" points="3872.5,540.5 3543,486 3274.9,597.5 3607,651.4 "/>
<polygon fill="#4DA4D5" points="3872.5,540.5 3543,486 3830,375.2 4096,394.1 4096,427 "/>
<polygon fill="#237DBA" points="3830,375.2 4096,263.9 4096,394.1 "/>
<polygon fill="#4DA4D5" points="2285,651.5 2590.9,635.8 2767,761 2479,775 "/>
<polygon fill="#4DBAE5" points="3001.9,710 2796,585.5 2767,761 "/>
<polygon fill="#2F93CC" points="2590.9,635.8 2796,585.5 2767,761 "/>
<polygon fill="#4DBAE5" points="2796,585.5 3103.9,474.4 3274.9,597.5 "/>
<polygon fill="#7BD0E6" points="3001.9,710 3274.9,597.5 2796,585.5 "/>
<polygon fill="#7BD0E6" points="3103.9,474.4 3359,375.2 3543,486 3274.9,597.5 "/>
<polygon fill="#4DBAE5" points="3830,375.2 3607,279.1 3359,375.2 3543,486 "/>
<polygon fill="#237DBA" points="3907,160.3 4096,263.9 3830,375.2 3607,279.1 "/>
<polygon fill="#237DBA" points="2715.6,0 3073,0 3019,184.9 2671,267.8 "/>
<polygon fill="#4DA4D5" points="3907,160.3 4096,81.4 4096,263.9 "/>
<polygon fill="#2F93CC" points="2163,492.1 2590.9,635.8 2285,651.5 "/>
<polygon fill="#4DA4D5" points="2163,492.1 2526,474.4 2590.9,635.8 "/>
<polygon fill="#4DA4D5" points="2163,492.1 2479,283.1 2126,286.6 "/>
<polygon fill="#2F93CC" points="2526,474.4 2479,283.1 2163,492.1 "/>
<polygon fill="#2F93CC" points="2479,283.1 2139,0 2126,286.6 "/>
<polygon fill="#4DBAE5" points="2796,585.5 2715.6,437.8 2526,474.4 2590.9,635.8 "/>
<polygon fill="#4DA4D5" points="2715.6,437.8 3035.5,342.9 3103.9,474.4 2796,585.5 "/>
<polygon fill="#237DBA" points="2479,283.1 2671,267.8 2715.6,437.8 2526,474.4 "/>
<polyline fill="#237DBA" points="2715.6,0 2671,267.8 2479,283.1 2139,0 "/>
<polygon fill="#2F93CC" points="2715.6,437.8 3035.5,342.9 3019,184.9 2671,267.8 "/>
<path fill="#2F93CC" d="M3019,184.9"/>
<polygon fill="#4DBAE5" points="3035.5,342.9 3309,263.8 3359,375.2 3103.9,474.4 "/>
<polygon fill="#4DA4D5" points="3019,184.9 3304.5,139.6 3309,263.8 3035.5,342.9 "/>
<polygon fill="#4DA4D5" points="3304.5,139.6 3544,111.5 3554,207.7 3309,263.8 "/>
<polygon fill="#2F93CC" points="3073,0 3345,0 3304.5,139.6 3019,184.9 "/>
<polygon fill="#2F93CC" points="3309,263.8 3554,207.7 3607,279.1 3359,375.2 "/>
<polyline fill="#237DBA" points="3304.5,139.6 3544,111.5 3573.7,0 3345,0 3309,123.9 "/>
<polygon fill="#237DBA" points="3554,207.7 3544,111.5 3573.7,0 4096,0 4096,81.4 3907,160.3 3607,279.1 "/>
<g>
	<rect x="2102.9" y="1289.1" fill="#2D3237" width="1993" height="390"/>
	<g>
		<g>
			<path fill="#FFFFFF" d="M2367.2,1486c-1.8,1.3-4,2.4-6.5,3.2c-2.5,0.8-5.4,1.2-8.5,1.2c-3.8,0-7.2-0.6-10.2-1.8
				c-2.9-1.2-5.4-2.8-7.5-5c-2-2.1-3.6-4.7-4.6-7.8c-1.1-3.1-1.6-6.5-1.6-10.3c0-4,0.6-7.5,1.7-10.6c1.2-3.1,2.8-5.7,4.9-7.8
				c2.1-2.1,4.7-3.7,7.6-4.8c3-1.1,6.3-1.7,10-1.7c5.8,0,10.5,1.4,14,4.1l-3.7,7c-1.4-1-2.9-1.7-4.5-2.1c-1.6-0.4-3.3-0.7-5-0.7
				c-4.7,0-8.4,1.4-10.8,4.3c-2.5,2.9-3.7,7-3.7,12.4c0,5.3,1.2,9.4,3.7,12.2c2.5,2.8,6.1,4.2,10.8,4.2c2.1,0,3.9-0.3,5.6-0.8
				c1.7-0.5,3.2-1.3,4.5-2.2L2367.2,1486z"/>
			<path fill="#FFFFFF" d="M2381.3,1439.7v37.7c0,1.8,0.3,3.1,0.9,3.6c0.6,0.6,1.7,0.9,3.5,0.9h0.6v7.4c-1,0.2-2.5,0.3-4.4,0.3
				c-3.7,0-6.4-0.9-8-2.8c-1.6-1.8-2.4-4.6-2.4-8.3v-38.9H2381.3z"/>
			<path fill="#FFFFFF" d="M2398.6,1473.9c0.4,3,1.4,5.2,3.1,6.6c1.7,1.4,4,2,7,2c1.6,0,3.2-0.2,4.6-0.6c1.5-0.4,2.8-1,3.9-1.8
				l3.3,5.8c-3.3,2.8-7.6,4.2-12.9,4.2c-3.2,0-5.9-0.5-8.3-1.4c-2.3-0.9-4.3-2.2-5.8-3.9c-1.5-1.7-2.7-3.6-3.4-5.9
				c-0.7-2.3-1.1-4.7-1.1-7.3c0-3,0.5-5.6,1.4-7.9c0.9-2.3,2.2-4.2,3.8-5.7c1.6-1.5,3.5-2.7,5.6-3.5c2.1-0.8,4.4-1.2,6.8-1.2
				c2.4,0,4.6,0.4,6.5,1.1c1.9,0.8,3.5,1.8,4.7,3.2c1.3,1.4,2.2,3,2.9,4.9c0.7,1.9,1,4,1,6.4c0,0.8,0,1.6-0.1,2.5
				c-0.1,0.9-0.2,1.6-0.4,2.3H2398.6z M2406.7,1460.6c-2.2,0-4,0.7-5.4,2c-1.4,1.3-2.2,3.2-2.4,5.5h14.1v-0.9c0-2.1-0.6-3.8-1.7-4.9
				C2410.1,1461.2,2408.6,1460.6,2406.7,1460.6z"/>
			<path fill="#FFFFFF" d="M2425.1,1479.5c0-3.6,1.3-6.4,3.9-8.3c2.6-1.9,6.2-2.9,10.9-2.9h5.7v-1.4c0-2-0.5-3.5-1.6-4.5
				c-1.1-0.9-2.8-1.4-5.2-1.4c-1.8,0-3.4,0.3-5,0.8c-1.6,0.5-3.1,1.2-4.4,2.1l-3.4-5.7c1.9-1.5,4.1-2.6,6.6-3.5
				c2.4-0.8,5.1-1.2,7.9-1.2c4.8,0,8.4,1.2,10.8,3.5c2.4,2.3,3.6,5.6,3.6,10v13.4c0,1.1,0.2,1.8,0.6,2.1c0.4,0.3,1,0.5,2,0.5h0.8v6
				c-0.5,0.2-1.1,0.3-1.8,0.5c-0.7,0.1-1.5,0.2-2.5,0.2c-2,0-3.5-0.4-4.6-1.2c-1-0.8-1.6-2.1-1.8-3.7c-0.8,1.7-2.2,3-4.1,3.9
				c-1.9,1-4.1,1.5-6.6,1.5c-3.5,0-6.3-0.9-8.4-2.8C2426.1,1485.4,2425.1,1482.8,2425.1,1479.5z M2439.2,1483c2,0,3.5-0.6,4.7-1.9
				c1.1-1.3,1.7-3.1,1.7-5.5v-1.8h-4.8c-2,0-3.6,0.4-4.7,1.2c-1.1,0.8-1.6,2-1.6,3.6c0,1.5,0.4,2.6,1.3,3.3
				C2436.6,1482.7,2437.7,1483,2439.2,1483z"/>
			<path fill="#FFFFFF" d="M2462.7,1454.4h5.6c2.4,0,3.5,1,3.5,3v4.3c0.7-2.4,2-4.2,3.7-5.6c1.7-1.4,3.9-2.1,6.5-2.1
				c1.1,0,2,0.1,2.8,0.3v8h-2c-3.5,0-6.1,0.9-7.7,2.7c-1.7,1.8-2.5,4.8-2.5,9v15.3h-9.8V1454.4z"/>
			<path fill="#FFFFFF" d="M2513.9,1481.4h21.4v7.9h-31.5v-47.7h10.1V1481.4z"/>
			<path fill="#FFFFFF" d="M2539.2,1440h10v8.9h-10V1440z M2549.1,1489.3h-9.8v-34.9h9.8V1489.3z"/>
			<path fill="#FFFFFF" d="M2557.1,1454.4h5.6c2.4,0,3.5,1,3.5,3v2.6c0.9-2,2.4-3.6,4.4-4.7c2-1.2,4.4-1.8,7.1-1.8
				c3.7,0,6.6,1.1,8.7,3.2c2.1,2.2,3.1,5.4,3.1,9.7v22.8h-9.8v-22.1c0-4.1-1.8-6.1-5.4-6.1c-2.3,0-4,0.8-5.4,2.4
				c-1.3,1.6-2,3.8-2,6.7v19.1h-9.8V1454.4z"/>
			<path fill="#FFFFFF" d="M2628.6,1489.3h-5.6c-1.3,0-2.2-0.3-2.8-0.8c-0.6-0.6-0.8-1.4-0.8-2.6v-1.9c-0.9,2.1-2.3,3.6-4.3,4.7
				c-1.9,1-4.1,1.6-6.6,1.6c-3.8,0-6.7-1.1-8.7-3.4c-2-2.3-2.9-5.6-2.9-9.9v-22.5h9.8v21.9c0,2.3,0.4,3.9,1.3,4.8
				c0.9,1,2.2,1.5,3.9,1.5c2.3,0,4-0.8,5.1-2.4c1.2-1.6,1.7-3.8,1.7-6.6v-19.2h9.8V1489.3z"/>
			<path fill="#FFFFFF" d="M2654.6,1471.1l12.7,18.2h-10.7l-7.3-11.5l-7.3,11.5h-10.3l12.7-17.8l-11.8-17.1h10.7l6.6,10.9l6.3-10.9
				h10.3L2654.6,1471.1z"/>
			<path fill="#FFFFFF" d="M2675.4,1439.7l-0.6,4.6l3.9-2.1l1.4,3.7l-4.3,1.2l3.4,3.6l-3.3,2.4l-2.7-4.3l-2.7,4.3l-3.3-2.4l3.4-3.7
				l-4.2-1.2l1.4-3.7l3.8,2.1l-0.5-4.5H2675.4z"/>
			<path fill="#FFFFFF" d="M2331.1,1513.5h15.2c5.3,0,9.4,1.3,12.2,3.8c2.8,2.5,4.2,6.1,4.2,10.7c0,4.7-1.4,8.3-4.2,10.8
				c-2.8,2.6-6.9,3.8-12.2,3.8h-11.1v18.6h-4.1V1513.5z M2335.3,1538.8h11.1c4.1,0,7.1-0.9,9.1-2.7c2-1.8,3-4.5,3-8.3
				c0-3.7-1-6.5-3-8.2c-2-1.7-5-2.6-9.1-2.6h-11.1V1538.8z"/>
			<path fill="#FFFFFF" d="M2370.4,1526.8h2.1c1.3,0,1.9,0.6,1.9,1.9v4.6c1-2.3,2.5-4,4.5-5.1c2-1.2,4.3-1.8,7-1.8
				c0.6,0,1.2,0,1.7,0.1c0.5,0,0.9,0.1,1.2,0.2v3.3h-2.4c-4.1,0-7.1,1.3-9.1,3.8c-2,2.5-3,6.4-3,11.6v15.9h-4.1V1526.8z"/>
			<path fill="#FFFFFF" d="M2406.9,1562.1c-2.5,0-4.7-0.4-6.7-1.3c-2-0.9-3.7-2.1-5.1-3.6c-1.4-1.6-2.5-3.5-3.3-5.7
				c-0.8-2.2-1.2-4.7-1.2-7.5s0.4-5.3,1.2-7.5c0.8-2.2,1.9-4.1,3.3-5.7c1.4-1.5,3.1-2.7,5.1-3.6c2-0.9,4.3-1.3,6.7-1.3
				c2.5,0,4.7,0.4,6.7,1.3c2,0.9,3.7,2.1,5.2,3.6c1.4,1.5,2.5,3.4,3.3,5.7c0.8,2.2,1.2,4.7,1.2,7.5s-0.4,5.3-1.2,7.5
				c-0.8,2.2-1.9,4.1-3.3,5.7c-1.4,1.6-3.1,2.8-5.2,3.6C2411.7,1561.6,2409.4,1562.1,2406.9,1562.1z M2394.8,1543.9
				c0,4.6,1.1,8.2,3.2,10.7c2.2,2.5,5.1,3.8,8.9,3.8c3.8,0,6.8-1.3,8.9-3.8c2.2-2.5,3.2-6.1,3.2-10.7c0-4.6-1.1-8.2-3.2-10.6
				c-2.2-2.5-5.1-3.7-8.9-3.7c-3.8,0-6.8,1.2-8.9,3.7C2395.9,1535.8,2394.8,1539.3,2394.8,1543.9z"/>
			<path fill="#FFFFFF" d="M2425.1,1572.6c2.1,0,3.6-0.3,4.5-1c0.9-0.7,1.3-2,1.3-3.9v-40.9h4.1v41.1c0,2.8-0.7,4.8-2.2,6.2
				c-1.5,1.4-3.6,2-6.4,2c-0.9,0-1.7-0.1-2.4-0.2v-3.3H2425.1z M2430.5,1513.3h4.8v5.3h-4.8V1513.3z"/>
			<path fill="#FFFFFF" d="M2446.5,1544.5c0,4.3,1.1,7.7,3.4,10.2c2.3,2.5,5.5,3.7,9.6,3.7c1.7,0,3.3-0.2,4.9-0.7
				c1.6-0.4,3.1-1.2,4.4-2.2l1.8,2.9c-1.1,0.9-2.6,1.8-4.5,2.5c-1.9,0.8-4.1,1.1-6.7,1.1c-2.8,0-5.2-0.4-7.3-1.3
				c-2.1-0.9-3.9-2.1-5.3-3.7c-1.4-1.6-2.5-3.5-3.2-5.7c-0.7-2.2-1.1-4.7-1.1-7.5c0-2.7,0.4-5.1,1.1-7.3c0.7-2.2,1.8-4.1,3.2-5.7
				c1.4-1.6,3.1-2.8,5-3.7c2-0.9,4.2-1.3,6.7-1.3c2.3,0,4.2,0.4,5.9,1.1c1.7,0.8,3.1,1.8,4.2,3.1c1.1,1.3,1.9,2.9,2.5,4.7
				c0.6,1.8,0.8,3.7,0.8,5.8c0,1.4-0.1,2.7-0.3,3.9H2446.5z M2458.5,1529.5c-3.5,0-6.2,1.1-8.3,3.2c-2.1,2.1-3.3,5-3.6,8.5h21.4
				v-1.2c0-3.3-0.8-5.9-2.4-7.7C2464,1530.4,2461.6,1529.5,2458.5,1529.5z"/>
			<path fill="#FFFFFF" d="M2493.8,1562.1c-2.1,0-4.2-0.3-6.2-1c-2-0.6-3.8-1.7-5.3-3.1c-1.5-1.4-2.8-3.3-3.7-5.5
				c-0.9-2.3-1.4-5-1.4-8.2c0-2.8,0.4-5.3,1.1-7.5c0.8-2.3,1.9-4.2,3.3-5.8c1.5-1.6,3.2-2.8,5.3-3.7c2.1-0.9,4.5-1.3,7.2-1.3
				c1.9,0,3.8,0.3,5.6,0.8c1.8,0.5,3.3,1.3,4.5,2.4l-1.8,2.9c-0.9-0.6-1.9-1.2-3.2-1.7c-1.3-0.5-2.9-0.7-4.8-0.7
				c-4.2,0-7.5,1.3-9.7,3.8c-2.2,2.5-3.3,6.1-3.3,10.8c0,2.5,0.3,4.6,0.9,6.4c0.6,1.8,1.5,3.3,2.6,4.4c1.1,1.2,2.5,2,4,2.6
				c1.6,0.6,3.3,0.8,5.1,0.8c1.8,0,3.3-0.2,4.8-0.7c1.4-0.4,2.6-1,3.7-1.8l1.7,2.9c-1.2,0.9-2.7,1.7-4.6,2.3
				C2497.9,1561.8,2496,1562.1,2493.8,1562.1z"/>
			<path fill="#FFFFFF" d="M2516.9,1530.2v20.7c0,2.7,0.5,4.5,1.6,5.5c1.1,1,3,1.5,5.7,1.5h1.8v3.3c-0.8,0.1-1.8,0.2-3.1,0.2
				c-3.5,0-6.1-0.8-7.7-2.5c-1.6-1.7-2.4-4.3-2.4-7.9v-20.7h-6.3v-3.4h6.3v-8.9h4.1v8.9h9.1v3.4H2516.9z"/>
		</g>
		<g>
			<path fill="#8C9196" d="M2336.9,1597.3v2h-3.7v11.8h-2.5v-11.8h-2.4v-2h2.4v-1.5c0-1.5,0.4-2.6,1.3-3.4c0.8-0.8,2-1.2,3.5-1.2
				c0.3,0,0.6,0,0.9,0c0.3,0,0.5,0.1,0.7,0.1v1.9h-0.4c-0.6,0-1,0-1.5,0.1c-0.4,0.1-0.8,0.2-1.1,0.4c-0.3,0.2-0.5,0.5-0.7,0.8
				c-0.2,0.4-0.2,0.8-0.2,1.4v1.4H2336.9z"/>
			<path fill="#8C9196" d="M2351.1,1604.2c0,1.1-0.2,2.1-0.5,3c-0.3,0.9-0.8,1.7-1.4,2.3c-0.6,0.6-1.3,1.1-2.2,1.5
				c-0.8,0.4-1.8,0.5-2.8,0.5c-1,0-2-0.2-2.8-0.5c-0.8-0.3-1.6-0.8-2.1-1.5c-0.6-0.6-1.1-1.4-1.4-2.3c-0.3-0.9-0.5-1.9-0.5-3
				c0-1.1,0.2-2.1,0.5-3c0.3-0.9,0.8-1.7,1.4-2.3c0.6-0.6,1.3-1.1,2.1-1.5c0.8-0.4,1.8-0.5,2.8-0.5c1,0,1.9,0.2,2.8,0.5
				c0.8,0.4,1.6,0.8,2.2,1.5c0.6,0.6,1.1,1.4,1.4,2.3C2350.9,1602.1,2351.1,1603.1,2351.1,1604.2z M2348.5,1604.2
				c0-1.6-0.4-2.9-1.1-3.8c-0.7-0.9-1.8-1.3-3.2-1.3c-1.4,0-2.4,0.4-3.2,1.3c-0.7,0.9-1.1,2.2-1.1,3.8c0,1.6,0.4,2.9,1.1,3.8
				c0.7,0.9,1.8,1.3,3.2,1.3c1.4,0,2.4-0.4,3.2-1.3C2348.1,1607.1,2348.5,1605.8,2348.5,1604.2z"/>
			<path fill="#8C9196" d="M2353.9,1597.3h1.3c0.8,0,1.1,0.3,1.1,1v1.3c0.4-0.8,0.9-1.4,1.7-1.9c0.7-0.4,1.6-0.7,2.6-0.7
				c0.3,0,0.5,0,0.7,0s0.4,0.1,0.5,0.1v2h-0.9c-1.5,0-2.7,0.4-3.4,1.2c-0.7,0.8-1.1,2.1-1.1,4v6.7h-2.5V1597.3z"/>
			<path fill="#8C9196" d="M2372.4,1611.1h-2.6V1592h2.6V1611.1z"/>
			<path fill="#8C9196" d="M2378.7,1599.3c0.4-0.8,1-1.4,1.8-1.8c0.8-0.4,1.8-0.6,2.9-0.6c1.6,0,2.8,0.5,3.6,1.4
				c0.8,0.9,1.3,2.2,1.3,4v8.8h-2.5v-8.6c0-1.2-0.2-2.1-0.7-2.6c-0.5-0.6-1.3-0.8-2.3-0.8c-1.2,0-2.2,0.4-2.9,1.2
				c-0.7,0.8-1.1,2-1.1,3.5v7.4h-2.5v-13.8h1.3c0.8,0,1.1,0.3,1.1,1V1599.3z"/>
			<path fill="#8C9196" d="M2398.2,1611.1c-0.2,0-0.5,0.1-0.7,0.1c-0.2,0-0.5,0-0.8,0c-1.5,0-2.7-0.4-3.4-1.1c-0.7-0.7-1-2-1-3.6
				v-7.2h-2.4v-2h2.4v-3.5h2.5v3.5h3.5v2h-3.5v7.5c0,0.9,0.2,1.6,0.6,1.9c0.4,0.3,1.1,0.5,2.1,0.5h0.7V1611.1z"/>
			<path fill="#8C9196" d="M2402.1,1604.7c0.1,1.5,0.5,2.6,1.3,3.4c0.8,0.8,1.9,1.2,3.4,1.2c1.4,0,2.6-0.4,3.5-1.1l1.1,1.6
				c-0.6,0.6-1.3,1-2.1,1.2c-0.8,0.3-1.7,0.4-2.6,0.4c-1.1,0-2-0.2-2.9-0.5c-0.9-0.3-1.6-0.8-2.2-1.4c-0.6-0.6-1.1-1.4-1.4-2.3
				c-0.3-0.9-0.5-2-0.5-3.2c0-1.1,0.2-2.1,0.5-3c0.3-0.9,0.8-1.6,1.4-2.2c0.6-0.6,1.3-1.1,2.1-1.4c0.8-0.3,1.7-0.5,2.6-0.5
				c0.9,0,1.8,0.2,2.5,0.5c0.7,0.3,1.3,0.7,1.8,1.3c0.5,0.6,0.8,1.2,1.1,2c0.2,0.8,0.4,1.6,0.4,2.5c0,0.6,0,1.1-0.1,1.6H2402.1z
				 M2406.3,1598.9c-1.1,0-2.1,0.4-2.8,1.1c-0.7,0.7-1.2,1.7-1.3,2.9h7.5v-0.2c0-1.2-0.3-2.1-0.9-2.7
				C2408.2,1599.3,2407.3,1598.9,2406.3,1598.9z"/>
			<path fill="#8C9196" d="M2417.1,1591.3v16.1c0,0.8,0.1,1.3,0.4,1.5c0.2,0.2,0.7,0.3,1.4,0.3h0.2v1.9c-0.2,0-0.3,0.1-0.5,0.1
				c-0.2,0-0.4,0-0.6,0c-1.1,0-1.9-0.3-2.5-0.9c-0.5-0.6-0.8-1.5-0.8-2.8v-16.2H2417.1z"/>
			<path fill="#8C9196" d="M2430,1595.6c0,0.7-0.1,1.3-0.3,1.9c-0.2,0.6-0.6,1-1,1.4c-0.4,0.4-0.9,0.7-1.5,0.9
				c-0.6,0.2-1.2,0.3-1.8,0.3s-1.3-0.1-1.8-0.3c-0.6-0.2-1.1-0.5-1.5-0.9c-0.4-0.4-0.7-0.9-1-1.4c-0.2-0.6-0.3-1.2-0.3-1.9
				c0-0.7,0.1-1.3,0.3-1.9c0.2-0.6,0.6-1,1-1.4c0.4-0.4,0.9-0.7,1.5-0.9c0.6-0.2,1.2-0.3,1.8-0.3s1.3,0.1,1.8,0.3
				c0.6,0.2,1.1,0.5,1.5,0.9c0.4,0.4,0.7,0.9,1,1.4C2429.9,1594.3,2430,1594.9,2430,1595.6z M2421.8,1595.6c0,1.1,0.3,2,1,2.6
				s1.5,1,2.5,1s1.9-0.3,2.5-1c0.6-0.6,1-1.5,1-2.6c0-1.1-0.3-2-1-2.6c-0.6-0.6-1.5-1-2.5-1s-1.9,0.3-2.5,1
				C2422.2,1593.6,2421.8,1594.5,2421.8,1595.6z M2427.6,1597.8h-1.2l-1.1-1.5c-0.1-0.1-0.2-0.2-0.3-0.2c-0.1,0-0.2-0.1-0.3-0.1v1.8
				h-1.1v-4.6h1.9c0.6,0,1,0.1,1.3,0.3c0.3,0.2,0.5,0.6,0.5,1c0,0.4-0.1,0.7-0.3,0.9c-0.2,0.2-0.5,0.4-0.8,0.4L2427.6,1597.8z
				 M2425.2,1595.3c0.6,0,0.9-0.2,0.9-0.7c0-0.3-0.1-0.4-0.2-0.5c-0.2-0.1-0.4-0.1-0.8-0.1h-0.4v1.4H2425.2z"/>
			<path fill="#8C9196" d="M2449.5,1605.8h-8.2l-1.9,5.3h-2.5l7.3-19.1h2.7l7.3,19.1h-2.7L2449.5,1605.8z M2442.2,1603.7h6.6
				l-3.3-8.9L2442.2,1603.7z"/>
			<path fill="#8C9196" d="M2456,1597.3h1.3c0.8,0,1.1,0.3,1.1,1v1.3c0.4-0.8,0.9-1.4,1.7-1.9c0.7-0.4,1.6-0.7,2.6-0.7
				c0.3,0,0.5,0,0.7,0c0.2,0,0.4,0.1,0.5,0.1v2h-0.9c-1.5,0-2.7,0.4-3.4,1.2c-0.7,0.8-1.1,2.1-1.1,4v6.7h-2.5V1597.3z"/>
			<path fill="#8C9196" d="M2466.9,1604.1c0,1.7,0.4,2.9,1.2,3.8c0.8,0.9,2,1.3,3.4,1.3c0.5,0,1.1-0.1,1.6-0.2
				c0.6-0.1,1.1-0.4,1.5-0.7l1,1.7c-1.1,0.9-2.6,1.4-4.4,1.4c-1.2,0-2.2-0.2-3.1-0.6c-0.9-0.4-1.6-0.9-2.2-1.5
				c-0.6-0.6-1-1.4-1.3-2.3c-0.3-0.9-0.4-1.8-0.4-2.9c0-1.1,0.2-2.1,0.5-3c0.3-0.9,0.8-1.7,1.4-2.3c0.6-0.6,1.4-1.1,2.2-1.5
				c0.9-0.4,1.9-0.5,3-0.5c1.7,0,3.1,0.4,4.2,1.3l-1,1.7c-0.3-0.2-0.8-0.5-1.3-0.6c-0.5-0.2-1.1-0.3-1.8-0.3c-1.4,0-2.6,0.4-3.4,1.3
				C2467.4,1601.2,2466.9,1602.5,2466.9,1604.1z"/>
			<path fill="#8C9196" d="M2480.4,1591.3v8c0.4-0.7,1-1.3,1.8-1.7c0.8-0.4,1.7-0.6,2.8-0.6c1.6,0,2.8,0.5,3.6,1.4
				c0.8,0.9,1.3,2.2,1.3,4v8.8h-2.5v-8.6c0-1.2-0.2-2.1-0.7-2.6c-0.5-0.6-1.3-0.8-2.3-0.8c-1.2,0-2.2,0.4-2.9,1.2s-1.1,2-1.1,3.5
				v7.4h-2.5v-19.8H2480.4z"/>
			<path fill="#8C9196" d="M2493.5,1591.7h2.6v2.8h-2.6V1591.7z M2496,1611.1h-2.5v-13.8h2.5V1611.1z"/>
			<path fill="#8C9196" d="M2506.3,1611.1c-0.2,0-0.5,0.1-0.7,0.1s-0.5,0-0.8,0c-1.5,0-2.7-0.4-3.4-1.1c-0.7-0.7-1-2-1-3.6v-7.2
				h-2.4v-2h2.4v-3.5h2.5v3.5h3.5v2h-3.5v7.5c0,0.9,0.2,1.6,0.6,1.9c0.4,0.3,1.1,0.5,2.1,0.5h0.7V1611.1z"/>
			<path fill="#8C9196" d="M2510.2,1604.7c0.1,1.5,0.5,2.6,1.3,3.4c0.8,0.8,1.9,1.2,3.4,1.2c1.4,0,2.6-0.4,3.5-1.1l1.1,1.6
				c-0.6,0.6-1.3,1-2.1,1.2c-0.8,0.3-1.7,0.4-2.6,0.4c-1.1,0-2-0.2-2.9-0.5c-0.9-0.3-1.6-0.8-2.2-1.4c-0.6-0.6-1.1-1.4-1.4-2.3
				c-0.3-0.9-0.5-2-0.5-3.2c0-1.1,0.2-2.1,0.5-3c0.3-0.9,0.8-1.6,1.4-2.2c0.6-0.6,1.3-1.1,2.1-1.4c0.8-0.3,1.7-0.5,2.6-0.5
				c0.9,0,1.8,0.2,2.5,0.5c0.7,0.3,1.3,0.7,1.8,1.3c0.5,0.6,0.8,1.2,1.1,2c0.2,0.8,0.4,1.6,0.4,2.5c0,0.6,0,1.1-0.1,1.6H2510.2z
				 M2514.4,1598.9c-1.1,0-2.1,0.4-2.8,1.1c-0.7,0.7-1.2,1.7-1.3,2.9h7.5v-0.2c0-1.2-0.3-2.1-0.9-2.7
				C2516.3,1599.3,2515.5,1598.9,2514.4,1598.9z"/>
			<path fill="#8C9196" d="M2524.5,1604.1c0,1.7,0.4,2.9,1.2,3.8c0.8,0.9,2,1.3,3.4,1.3c0.5,0,1.1-0.1,1.6-0.2
				c0.6-0.1,1.1-0.4,1.5-0.7l1,1.7c-1.1,0.9-2.6,1.4-4.4,1.4c-1.2,0-2.2-0.2-3.1-0.6c-0.9-0.4-1.6-0.9-2.2-1.5
				c-0.6-0.6-1-1.4-1.3-2.3c-0.3-0.9-0.4-1.8-0.4-2.9c0-1.1,0.2-2.1,0.5-3c0.3-0.9,0.8-1.7,1.4-2.3c0.6-0.6,1.4-1.1,2.2-1.5
				c0.9-0.4,1.9-0.5,3-0.5c1.7,0,3.1,0.4,4.2,1.3l-1,1.7c-0.3-0.2-0.8-0.5-1.3-0.6c-0.5-0.2-1.1-0.3-1.8-0.3c-1.4,0-2.6,0.4-3.4,1.3
				C2524.9,1601.2,2524.5,1602.5,2524.5,1604.1z"/>
			<path fill="#8C9196" d="M2542.4,1611.1c-0.2,0-0.5,0.1-0.7,0.1c-0.2,0-0.5,0-0.8,0c-1.5,0-2.7-0.4-3.4-1.1c-0.7-0.7-1-2-1-3.6
				v-7.2h-2.4v-2h2.4v-3.5h2.5v3.5h3.5v2h-3.5v7.5c0,0.9,0.2,1.6,0.6,1.9c0.4,0.3,1.1,0.5,2.1,0.5h0.7V1611.1z"/>
			<path fill="#8C9196" d="M2556.3,1611.1h-1.2c-0.8,0-1.1-0.3-1.1-1v-1.1c-0.3,0.6-0.9,1.2-1.6,1.7c-0.7,0.5-1.7,0.7-2.8,0.7
				c-1.6,0-2.8-0.5-3.7-1.4c-0.9-1-1.3-2.3-1.3-4.1v-8.7h2.5v8.5c0,1.2,0.2,2.1,0.7,2.7c0.5,0.6,1.2,0.9,2.2,0.9
				c1.2,0,2.2-0.4,2.9-1.3c0.7-0.8,1.1-2,1.1-3.5v-7.2h2.5V1611.1z"/>
			<path fill="#8C9196" d="M2559.9,1597.3h1.3c0.8,0,1.1,0.3,1.1,1v1.3c0.4-0.8,0.9-1.4,1.7-1.9c0.7-0.4,1.6-0.7,2.6-0.7
				c0.3,0,0.5,0,0.7,0c0.2,0,0.4,0.1,0.5,0.1v2h-0.9c-1.5,0-2.7,0.4-3.4,1.2c-0.7,0.8-1.1,2.1-1.1,4v6.7h-2.5V1597.3z"/>
			<path fill="#8C9196" d="M2570.7,1604.7c0.1,1.5,0.5,2.6,1.3,3.4c0.8,0.8,1.9,1.2,3.4,1.2c1.4,0,2.6-0.4,3.5-1.1l1.1,1.6
				c-0.6,0.6-1.3,1-2.1,1.2c-0.8,0.3-1.7,0.4-2.6,0.4c-1.1,0-2-0.2-2.9-0.5c-0.9-0.3-1.6-0.8-2.2-1.4c-0.6-0.6-1.1-1.4-1.4-2.3
				c-0.3-0.9-0.5-2-0.5-3.2c0-1.1,0.2-2.1,0.5-3c0.3-0.9,0.8-1.6,1.4-2.2c0.6-0.6,1.3-1.1,2.1-1.4c0.8-0.3,1.7-0.5,2.6-0.5
				c0.9,0,1.8,0.2,2.5,0.5c0.7,0.3,1.3,0.7,1.8,1.3s0.8,1.2,1.1,2c0.2,0.8,0.4,1.6,0.4,2.5c0,0.6,0,1.1-0.1,1.6H2570.7z
				 M2574.9,1598.9c-1.1,0-2.1,0.4-2.8,1.1c-0.7,0.7-1.2,1.7-1.3,2.9h7.5v-0.2c0-1.2-0.3-2.1-0.9-2.7
				C2576.8,1599.3,2576,1598.9,2574.9,1598.9z"/>
		</g>
		<g>
			<linearGradient id="SVGID_1_" gradientUnits="userSpaceOnUse" x1="2240.6255" y1="1448.9695" x2="2213.7695" y2="1455.2856">
				<stop  offset="0" style="stop-color:#7FD1F5"/>
				<stop  offset="1" style="stop-color:#B3E3F9"/>
			</linearGradient>
			<polygon fill="url(#SVGID_1_)" points="2250.1,1517.3 2229,1392.9 2195.2,1389.2 			"/>
			<linearGradient id="SVGID_2_" gradientUnits="userSpaceOnUse" x1="2231.636" y1="1365.2546" x2="2314.4719" y2="1396.0964">
				<stop  offset="0" style="stop-color:#3EBDEE"/>
				<stop  offset="0.75" style="stop-color:#92D1B2"/>
			</linearGradient>
			<polygon fill="url(#SVGID_2_)" points="2227.9,1373.3 2310.7,1401.9 2234,1356.7 			"/>
			<linearGradient id="SVGID_3_" gradientUnits="userSpaceOnUse" x1="2213.2434" y1="1371.8328" x2="2222.7788" y2="1379.9773">
				<stop  offset="0" style="stop-color:#7FD1F5"/>
				<stop  offset="1" style="stop-color:#B3E3F9"/>
			</linearGradient>
			<polygon fill="url(#SVGID_3_)" points="2195.1,1389.2 2227.9,1373.3 2234,1356.7 			"/>
			<linearGradient id="SVGID_4_" gradientUnits="userSpaceOnUse" x1="2200.6936" y1="1373.6002" x2="2247.592" y2="1406.6758">
				<stop  offset="0" style="stop-color:#3EBDEE"/>
				<stop  offset="0.85" style="stop-color:#92D1B2"/>
			</linearGradient>
			<polygon fill="url(#SVGID_4_)" points="2195.1,1389.2 2251.8,1395.3 2227.9,1373.3 			"/>
			<polygon fill="#2370B8" points="2251.8,1395.3 2310.7,1401.9 2227.9,1373.3 			"/>
			<linearGradient id="SVGID_5_" gradientUnits="userSpaceOnUse" x1="2223.3716" y1="1450.9065" x2="2197.1677" y2="1530.7195">
				<stop  offset="0" style="stop-color:#47A7DE"/>
				<stop  offset="1" style="stop-color:#92D1B2"/>
			</linearGradient>
			<polygon fill="url(#SVGID_5_)" points="2178.2,1534.1 2250.1,1517.2 2195.1,1389.2 			"/>
			<linearGradient id="SVGID_6_" gradientUnits="userSpaceOnUse" x1="2220.3877" y1="1521.7051" x2="2220.3877" y2="1542.4269">
				<stop  offset="0" style="stop-color:#D2D3D5"/>
				<stop  offset="1" style="stop-color:#F6F7F8"/>
			</linearGradient>
			<polygon fill="url(#SVGID_6_)" points="2250.1,1517.2 2262.6,1546.1 2178.2,1534.1 			"/>
			<linearGradient id="SVGID_7_" gradientUnits="userSpaceOnUse" x1="2181.4221" y1="1539.6709" x2="2244.5837" y2="1500.1715">
				<stop  offset="0" style="stop-color:#F6F7F8;stop-opacity:0.4"/>
				<stop  offset="1" style="stop-color:#F1F2F4;stop-opacity:0"/>
			</linearGradient>
			<polygon fill="url(#SVGID_7_)" points="2250.1,1517.2 2236.2,1484.9 2178.2,1534.1 			"/>
			<linearGradient id="SVGID_8_" gradientUnits="userSpaceOnUse" x1="2220.3877" y1="1539.7377" x2="2220.3877" y2="1554.5103">
				<stop  offset="0" style="stop-color:#D2D3D5"/>
				<stop  offset="1" style="stop-color:#F6F7F8"/>
			</linearGradient>
			<polygon fill="url(#SVGID_8_)" points="2262.6,1546.1 2238.9,1561.8 2178.2,1534.1 			"/>
			<linearGradient id="SVGID_9_" gradientUnits="userSpaceOnUse" x1="2197.0964" y1="1422.161" x2="2285.3447" y2="1493.5531">
				<stop  offset="8.000000e-02" style="stop-color:#FCB717"/>
				<stop  offset="0.35" style="stop-color:#FEE867"/>
				<stop  offset="0.75" style="stop-color:#F6F7F8"/>
				<stop  offset="1" style="stop-color:#F1F2F4"/>
			</linearGradient>
			<polygon fill="url(#SVGID_9_)" points="2251.7,1395.3 2288.3,1488.4 2262.5,1546.1 2250.1,1517.2 2228.9,1392.8 			"/>
		</g>
	</g>
</g>
</svg>
