<?xml version="1.0" encoding="utf-8"?>
<!-- Generator: Adobe Illustrator 18.0.0, SVG Export Plug-In . SVG Version: 6.00 Build 0)  -->
<!DOCTYPE svg PUBLIC "-//W3C//DTD SVG 1.1//EN" "http://www.w3.org/Graphics/SVG/1.1/DTD/svg11.dtd">
<svg version="1.1" id="Layer_1" xmlns="http://www.w3.org/2000/svg" xmlns:xlink="http://www.w3.org/1999/xlink" x="0px" y="0px"
	 viewBox="0 0 4096 2160" enable-background="new 0 0 4096 2160" xml:space="preserve">
<rect x="-1.6" fill="#3088B5" width="4096" height="2160"/>
<polygon fill="#44ADE2" points="228.6,530.5 635.6,381.4 269,302.4 -1.6,405 -1.6,462.7 "/>
<polygon fill="#359DC6" points="1095.3,234 651.4,184.9 269,302.4 635.6,381.4 "/>
<polygon fill="#2E80AD" points="1532.1,81.4 1088.3,81.4 651.4,184.9 1095.3,234 "/>
<polygon fill="#359DC6" points="1821.6,0 1532.1,81.4 1088.3,81.4 1335.6,0 "/>
<polygon fill="#358EB5" points="700.6,40.7 1088.3,81.4 1335.6,0 904.1,0 "/>
<polygon fill="#3088B5" points="651.4,184.9 351.4,130.5 713,38.2 1088.3,81.4 "/>
<polygon fill="#2E80AD" points="269,302.4 -1.6,248 351.4,130.5 651.4,184.9 "/>
<polygon fill="#2E80AD" points="713,38.2 332.1,0 904.1,0 "/>
<polygon fill="#297CA5" points="351.4,130.5 -1.6,72.6 332.1,0 713,38.2 "/>
<polygon fill="#2E80AD" points="-1.6,248 -1.6,72.6 351.4,130.5 "/>
<polygon fill="#359DC6" points="-1.6,405 269,302.4 -1.6,248 "/>
<polygon fill="#257A9B" points="-1.6,72.6 332.1,0 -1.6,0 "/>
<polygon fill="#44ADE2" points="1532.1,81.4 1958.5,169.1 2265.5,130.5 1821.6,0 "/>
<polygon fill="#4DBAE5" points="1958.5,169.1 1497,248 1095.3,234 1532.1,81.4 "/>
<polygon fill="#44ADE2" points="635.6,381.4 795.3,393.6 1497,248 1095.3,234 "/>
<polygon fill="#358EB5" points="635.6,427 635.6,381.4 1095.3,234 1107.6,328.8 "/>
<polygon fill="#2C8AAA" points="218.1,651.5 228.6,530.5 635.6,381.4 635.6,427 "/>
<polygon fill="#2C8AAA" points="-1.6,618.2 228.6,530.5 218.1,651.5 "/>
<polygon fill="#359DC6" points="-1.6,462.7 228.6,530.5 -1.6,618.2 "/>
<polygon fill="#359DC6" points="-1.6,777.9 218.1,651.5 -1.6,618.2 "/>
<polygon fill="#38A7D3" points="-1.6,902.4 174.9,962.1 218.1,651.5 -1.6,777.9 "/>
<path fill="#44ADE2" d="M600.6,835.8c-5.3-1.8-382.5-184.2-382.5-184.2l-43.2,310.5L600.6,835.8z"/>
<polygon fill="#4DBAE5" points="635.6,427 600.6,835.8 218.1,651.5 "/>
<polygon fill="#44ADE2" points="600.6,835.8 1049.7,591 635.6,427 "/>
<polygon fill="#4DBAE5" points="1497,502.4 1049.7,591 635.6,427 1095.3,331.4 "/>
<polygon fill="#5FCBEB" points="1497,248 1914.6,313.8 1497,502.4 1095.3,331.4 "/>
<polygon fill="#5BC1E5" points="1958.5,169.1 2307.6,234 1914.6,313.8 1497,248 "/>
<polygon fill="#4DBAE5" points="2265.5,130.5 2644.4,184.9 2307.6,234 1958.5,169.1 "/>
<polygon fill="#5BC1E5" points="2644.4,184.9 2265.5,130.5 2674.2,28.7 3104.1,111.5 "/>
<polygon fill="#5FCBEB" points="1049.7,591 1414.6,769.1 1805.8,680.1 1486.5,502.4 "/>
<polygon fill="#4DBAE5" points="600.6,835.8 969,948 1414.6,769.1 1049.7,591 "/>
<path fill="#5BC1E5" d="M546.2,1220c-3.5-5.3,54.4-384.2,54.4-384.2L969,948L546.2,1220z"/>
<polygon fill="#5FCBEB" points="174.9,962.1 546.2,1220 600.6,835.8 "/>
<polygon fill="#4DBAE5" points="174.9,962.1 151.4,1170.8 546.2,1220 "/>
<polygon fill="#3088B5" points="-1.6,1148 -1.6,1067.3 174.9,962.1 151.4,1170.8 "/>
<polygon fill="#2E80AD" points="-1.6,902.4 174.9,962.1 -1.6,1067.3 "/>
<polygon fill="#44ADE2" points="546.2,1220 519.9,1493.6 151.4,1170.8 "/>
<polygon fill="#38A7D3" points="133.7,1493.6 151.4,1170.8 519.9,1493.6 "/>
<polygon fill="#297CA5" points="-1.6,1242.8 151.4,1170.8 133.7,1493.6 "/>
<path fill="#2A7FAA" d="M-1.6,1148l153,22.8c0,0-161,75.7-153,71.9C6.4,1239-1.6,1148-1.6,1148z"/>
<polygon fill="#2C89B2" points="133.7,1493.6 -1.9,1544.5 -1.6,1242.8 "/>
<polygon fill="#5BC1E5" points="519.9,1493.6 916.3,1377.9 546.2,1220 "/>
<polygon fill="#4DBAE5" points="969,948 916.3,1377.9 546.2,1220 "/>
<polygon fill="#5FCBEB" points="1362,962.1 1414.6,769.1 969,948 "/>
<polygon fill="#5BC1E5" points="1335.6,1242.9 1362,962.1 969,948 "/>
<polygon fill="#4DBAE5" points="1790,974.4 1335.6,1242.9 1362,962.1 "/>
<polygon fill="#44ADE2" points="1414.6,769.1 1790,974.4 1362,962.1 "/>
<polygon fill="#44ADE2" points="916.3,1377.9 969,948 1335.6,1242.9 "/>
<polygon fill="#5BC1E5" points="1790,974.4 2112.8,835.8 1805.8,680.1 1414.6,769.1 "/>
<polygon fill="#5BC1E5" points="1914.6,313.8 1805.8,680.1 1486.5,502.4 "/>
<polygon fill="#38A7D3" points="2301.4,474.4 1914.6,313.8 1805.8,680.1 "/>
<polygon fill="#5FCBEB" points="2584.8,651.5 2112.8,835.8 1805.8,680.1 2301.4,474.4 "/>
<polygon fill="#4DBAE5" points="1914.6,313.8 2644.4,342.8 2307.6,234 "/>
<polygon fill="#44ADE2" points="2301.4,474.4 2644.4,342.8 1914.6,313.8 "/>
<polygon fill="#4DBAE5" points="2584.8,651.5 2644.4,342.8 2301.4,474.4 "/>
<path fill="#44ADE2" d="M2644.4,184.9c0,0,8.8,163.2,0,157.9c-8.8-5.3-336.8-108.8-336.8-108.8L2644.4,184.9z"/>
<polygon fill="#38A7D3" points="3042.7,207.7 2644.4,342.8 2644.4,184.9 "/>
<polygon fill="#5FCBEB" points="3104.1,111.5 3477.7,160.3 3042.7,207.7 2644.4,184.9 "/>
<polygon fill="#4DBAE5" points="3033.9,497.2 3042.7,207.7 2644.4,342.8 "/>
<polygon fill="#359DC6" points="3477.7,160.3 3446.2,393.6 3042.7,207.7 "/>
<polygon fill="#358EB5" points="3033.9,497.2 3446.2,393.6 3042.7,207.7 "/>
<polygon fill="#38A7D3" points="2644.4,342.8 3033.9,497.2 2584.8,651.5 "/>
<polygon fill="#4DBAE5" points="519.9,1493.6 837.4,1869.1 1309.3,1569.1 916.3,1377.9 "/>
<polygon fill="#5BC1E5" points="1335.6,1242.9 1309.3,1569.1 916.3,1377.9 "/>
<path fill="#5FCBEB" d="M1676,1418.2c3.5-5.3,114-443.9,114-443.9l-454.4,268.6L1676,1418.2z"/>
<polygon fill="#4DBAE5" points="1309.3,1569.1 1676,1418.2 1335.6,1242.9 "/>
<polygon fill="#5BC1E5" points="1676,1418.2 2172.5,1196.3 1790,974.4 "/>
<polygon fill="#5FCBEB" points="2112.8,835.8 2477.9,1070.8 2172.5,1196.3 1790,974.4 "/>
<polygon fill="#5BC1E5" points="2477.9,1070.8 2584.8,651.5 2112.8,835.8 "/>
<polygon fill="#5FCBEB" points="2477.9,1070.8 2944.4,962.1 2584.8,651.5 "/>
<polygon fill="#49ACD3" points="3033.9,497.2 2944.4,962.1 2584.8,651.5 "/>
<polygon fill="#49ACD3" points="3033.9,497.2 3376,697.2 3446.2,393.6 "/>
<polygon fill="#359DC6" points="2944.4,962.1 3376,697.2 3033.9,497.2 "/>
<polygon fill="#38A7D3" points="3376,697.2 3349.7,1000.7 2944.4,962.1 "/>
<polygon fill="#359DC6" points="3376,697.2 3756.7,835.8 3712.8,1139.3 3349.7,1000.7 "/>
<polygon fill="#49ACD3" points="3376,697.2 3784.8,614.7 3756.7,835.8 "/>
<polygon fill="#359DC6" points="3446.2,393.6 3784.8,614.7 3376,697.2 "/>
<polygon fill="#358EB5" points="3446.2,393.6 3816.3,393.6 3784.8,614.7 "/>
<polygon fill="#2C8AAA" points="3477.7,160.3 3816.3,393.6 3446.2,393.6 "/>
<polygon fill="#359DC6" points="3784.8,614.7 4094.4,793.1 3756.7,835.8 "/>
<polygon fill="#359DC6" points="3825.1,393.6 4094.4,474.4 4094.4,545.4 3784.8,614.7 3816.3,393.6 "/>
<polygon fill="#359DC6" points="3816.3,393.6 3847.9,200.7 3477.7,160.3 "/>
<polygon fill="#2C8AAA" points="4094.4,474.4 3847.9,200.7 3816.3,393.6 "/>
<path fill="#5BC1E5" d="M3104.1,111.5l389.5-82.8c0,0,389.5,63.2,382.5,63.2c-7,0-398.2,68.4-398.2,68.4L3104.1,111.5z"/>
<polygon fill="#4DBAE5" points="3847.9,200.7 4104.1,139.3 3876,91.9 3477.7,160.3 "/>
<path fill="#4DBAE5" d="M3104.1,111.5l389.5-82.8L3260.2,0h-740.4h-698.2l443.9,130.5c0,0,380.7-96.5,386-94.2l417.5,75.2"/>
<polyline fill="#4DBAE5" points="3260.2,0 4094.4,0 4094.4,49.8 4094.4,137.3 "/>
<polygon fill="#44ADE2" points="3847.9,200.7 4094.4,137.3 4094.4,474.4 "/>
<polygon fill="#5BC1E5" points="519.9,1493.6 133.7,1493.6 467.2,1986.6 837.4,1869.1 "/>
<polygon fill="#2D89AD" points="467.2,1986.6 165.5,2160 -1.6,2160 -1.9,1544.5 133.7,1493.6 "/>
<polygon fill="#44ADE2" points="837.4,1869.1 1279.5,1986.6 870.7,2041 467.2,1986.6 "/>
<polygon fill="#2E80AD" points="485.6,2160 467.2,1986.6 165.5,2160 "/>
<polygon fill="#3088B5" points="870.7,2041 609.3,2160 485.6,2160 467.2,1986.6 "/>
<polygon fill="#3088B5" points="1279.5,1986.6 1660.2,2073.3 1539.2,2160 1207.6,2160 870.7,2041 "/>
<polygon fill="#2E80AD" points="609.3,2160 870.7,2041 1207.6,2160 "/>
<polygon fill="#5BC1E5" points="1279.5,1986.6 1309.3,1569.1 837.4,1869.1 "/>
<polygon fill="#5FCBEB" points="1700.6,1740.1 1309.3,1569.1 1279.5,1986.6 "/>
<polygon fill="#5BC1E5" points="1676,1418.2 1700.6,1740.1 1309.3,1569.1 "/>
<polygon fill="#5FCBEB" points="1700.6,1740.1 2093.5,1595.4 1676,1418.2 "/>
<polygon fill="#6DCEEA" points="2172.5,1196.3 2514.6,1386.6 2093.5,1595.4 1676,1418.2 "/>
<polygon fill="#5BC1E5" points="2514.6,1386.6 2795.3,1269.1 2477.9,1070.8 2172.5,1196.3 "/>
<polygon fill="#5FCBEB" points="1700.6,1740.1 2077.7,1807.7 2093.5,1595.4 "/>
<polygon fill="#5BC1E5" points="1660.2,2073.3 2077.7,1807.7 1700.6,1740.1 1279.5,1986.6 "/>
<polygon fill="#5BC1E5" points="2093.5,1595.4 2477.9,1826.8 2077.7,1807.7 "/>
<polygon fill="#5BC1E5" points="2477.9,1826.8 2514.6,1386.6 2093.5,1595.4 "/>
<polygon fill="#5FCBEB" points="2077.7,1807.7 2053.6,2160 1818.1,2160 1660.2,2073.3 "/>
<polygon fill="#2E80AD" points="1539.2,2160 1660.2,2073.3 1818.1,2160 "/>
<polygon fill="#5FCBEB" points="2477.9,1826.8 2456.7,2160 2077.7,1807.7 "/>
<polygon fill="#6DCEEA" points="2053.6,2160 2456.7,2160 2077.7,1807.7 "/>
<polygon fill="#4DBAE5" points="2514.6,1386.6 2918.1,1730.5 2477.9,1826.8 "/>
<polygon fill="#4DBAE5" points="2795.3,1269.1 2944.4,962.1 2477.9,1070.8 "/>
<polygon fill="#5FCBEB" points="2514.6,1386.6 2795.3,1269.1 3291.8,1648 2918.1,1730.5 "/>
<polygon fill="#5BC1E5" points="2795.3,1269.1 3325.1,1242.9 3291.8,1648 "/>
<polygon fill="#5FCBEB" points="3349.7,1000.7 3325.1,1242.9 2795.3,1269.1 2944.4,962.1 "/>
<polygon fill="#49ACD3" points="3325.1,1242.9 3705.8,1353.3 3712.8,1139.3 3349.7,1000.7 "/>
<polygon fill="#38A7D3" points="3291.8,1648 3705.8,1353.3 3325.1,1242.9 "/>
<polygon fill="#49ACD3" points="3705.8,1353.3 4094.4,1579.2 3662.8,1893.6 3291.8,1648 "/>
<polygon fill="#5BC1E5" points="2918.1,1730.5 3260.2,1942.8 3662.8,1893.6 3291.8,1648 "/>
<path fill="#5BC1E5" d="M2869,1906.7c1.8-0.8,49.1-176.2,49.1-176.2l-440.2,96.3L2869,1906.7z"/>
<polygon fill="#4DBAE5" points="2456.7,2160 2869,1906.7 2477.9,1826.8 "/>
<polygon fill="#49ACD3" points="3260.2,1942.8 2869,1906.7 2918.1,1730.5 "/>
<polygon fill="#2C89B2" points="2869,1906.7 2854.9,2160 2456.7,2160 "/>
<polygon fill="#359DC6" points="3260.2,1942.8 3260.2,2160 2854.9,2160 2869,1906.7 "/>
<polygon fill="#49ACD3" points="3662.8,1890.6 3662.8,2160 3260.2,2160 3260.2,1942.8 "/>
<polygon fill="#35A0C1" points="3662.8,1890.6 4094.4,1579.2 4094.4,2160 "/>
<polygon fill="#2C89B2" points="3662.8,2160 3662.8,1890.6 4094.4,2160 "/>
<polygon fill="#359DC6" points="3705.8,1353.3 4094.4,1185 4094.4,1579.2 "/>
<polygon fill="#5FCBEB" points="3712.8,1139.3 4094.4,1095.5 4094.4,1185 3705.8,1353.3 "/>
<polygon fill="#38A7D3" points="3756.7,835.8 4094.4,793.1 4094.4,1095.5 3712.8,1139.3 "/>
<polygon fill="#49ACD3" points="3784.8,614.7 4094.4,545.4 4094.4,793.1 "/>
<g>
	<rect x="2102.9" y="1289.1" fill="#2D3237" width="1993" height="390"/>
	<g>
		<g>
			<path fill="#FFFFFF" d="M2367.2,1486c-1.8,1.3-4,2.4-6.5,3.2c-2.5,0.8-5.4,1.2-8.5,1.2c-3.8,0-7.2-0.6-10.2-1.8
				c-2.9-1.2-5.4-2.8-7.5-5c-2-2.1-3.6-4.7-4.6-7.8c-1.1-3.1-1.6-6.5-1.6-10.3c0-4,0.6-7.5,1.7-10.6c1.2-3.1,2.8-5.7,4.9-7.8
				c2.1-2.1,4.7-3.7,7.6-4.8c3-1.1,6.3-1.7,10-1.7c5.8,0,10.5,1.4,14,4.1l-3.7,7c-1.4-1-2.9-1.7-4.5-2.1c-1.6-0.4-3.3-0.7-5-0.7
				c-4.7,0-8.4,1.4-10.8,4.3c-2.5,2.9-3.7,7-3.7,12.4c0,5.3,1.2,9.4,3.7,12.2c2.5,2.8,6.1,4.2,10.8,4.2c2.1,0,3.9-0.3,5.6-0.8
				c1.7-0.5,3.2-1.3,4.5-2.2L2367.2,1486z"/>
			<path fill="#FFFFFF" d="M2381.3,1439.7v37.7c0,1.8,0.3,3.1,0.9,3.6c0.6,0.6,1.7,0.9,3.5,0.9h0.6v7.4c-1,0.2-2.5,0.3-4.4,0.3
				c-3.7,0-6.4-0.9-8-2.8c-1.6-1.8-2.4-4.6-2.4-8.3v-38.9H2381.3z"/>
			<path fill="#FFFFFF" d="M2398.6,1473.9c0.4,3,1.4,5.2,3.1,6.6c1.7,1.4,4,2,7,2c1.6,0,3.2-0.2,4.6-0.6c1.5-0.4,2.8-1,3.9-1.8
				l3.3,5.8c-3.3,2.8-7.6,4.2-12.9,4.2c-3.2,0-5.9-0.5-8.3-1.4c-2.3-0.9-4.3-2.2-5.8-3.9c-1.5-1.7-2.7-3.6-3.4-5.9
				c-0.7-2.3-1.1-4.7-1.1-7.3c0-3,0.5-5.6,1.4-7.9c0.9-2.3,2.2-4.2,3.8-5.7c1.6-1.5,3.5-2.7,5.6-3.5c2.1-0.8,4.4-1.2,6.8-1.2
				c2.4,0,4.6,0.4,6.5,1.1c1.9,0.8,3.5,1.8,4.7,3.2c1.3,1.4,2.2,3,2.9,4.9c0.7,1.9,1,4,1,6.4c0,0.8,0,1.6-0.1,2.5
				c-0.1,0.9-0.2,1.6-0.4,2.3H2398.6z M2406.7,1460.6c-2.2,0-4,0.7-5.4,2c-1.4,1.3-2.2,3.2-2.4,5.5h14.1v-0.9c0-2.1-0.6-3.8-1.7-4.9
				C2410.1,1461.2,2408.6,1460.6,2406.7,1460.6z"/>
			<path fill="#FFFFFF" d="M2425.1,1479.5c0-3.6,1.3-6.4,3.9-8.3c2.6-1.9,6.2-2.9,10.9-2.9h5.7v-1.4c0-2-0.5-3.5-1.6-4.5
				c-1.1-0.9-2.8-1.4-5.2-1.4c-1.8,0-3.4,0.3-5,0.8c-1.6,0.5-3.1,1.2-4.4,2.1l-3.4-5.7c1.9-1.5,4.1-2.6,6.6-3.5
				c2.4-0.8,5.1-1.2,7.9-1.2c4.8,0,8.4,1.2,10.8,3.5c2.4,2.3,3.6,5.6,3.6,10v13.4c0,1.1,0.2,1.8,0.6,2.1c0.4,0.3,1,0.5,2,0.5h0.8v6
				c-0.5,0.2-1.1,0.3-1.8,0.5c-0.7,0.1-1.5,0.2-2.5,0.2c-2,0-3.5-0.4-4.6-1.2c-1-0.8-1.6-2.1-1.8-3.7c-0.8,1.7-2.2,3-4.1,3.9
				c-1.9,1-4.1,1.5-6.6,1.5c-3.5,0-6.3-0.9-8.4-2.8C2426.1,1485.4,2425.1,1482.8,2425.1,1479.5z M2439.2,1483c2,0,3.5-0.6,4.7-1.9
				c1.1-1.3,1.7-3.1,1.7-5.5v-1.8h-4.8c-2,0-3.6,0.4-4.7,1.2c-1.1,0.8-1.6,2-1.6,3.6c0,1.5,0.4,2.6,1.3,3.3
				C2436.6,1482.7,2437.7,1483,2439.2,1483z"/>
			<path fill="#FFFFFF" d="M2462.7,1454.4h5.6c2.4,0,3.5,1,3.5,3v4.3c0.7-2.4,2-4.2,3.7-5.6c1.7-1.4,3.9-2.1,6.5-2.1
				c1.1,0,2,0.1,2.8,0.3v8h-2c-3.5,0-6.1,0.9-7.7,2.7c-1.7,1.8-2.5,4.8-2.5,9v15.3h-9.8V1454.4z"/>
			<path fill="#FFFFFF" d="M2513.9,1481.4h21.4v7.9h-31.5v-47.7h10.1V1481.4z"/>
			<path fill="#FFFFFF" d="M2539.2,1440h10v8.9h-10V1440z M2549.1,1489.3h-9.8v-34.9h9.8V1489.3z"/>
			<path fill="#FFFFFF" d="M2557.1,1454.4h5.6c2.4,0,3.5,1,3.5,3v2.6c0.9-2,2.4-3.6,4.4-4.7c2-1.2,4.4-1.8,7.1-1.8
				c3.7,0,6.6,1.1,8.7,3.2c2.1,2.2,3.1,5.4,3.1,9.7v22.8h-9.8v-22.1c0-4.1-1.8-6.1-5.4-6.1c-2.3,0-4,0.8-5.4,2.4
				c-1.3,1.6-2,3.8-2,6.7v19.1h-9.8V1454.4z"/>
			<path fill="#FFFFFF" d="M2628.6,1489.3h-5.6c-1.3,0-2.2-0.3-2.8-0.8c-0.6-0.6-0.8-1.4-0.8-2.6v-1.9c-0.9,2.1-2.3,3.6-4.3,4.7
				c-1.9,1-4.1,1.6-6.6,1.6c-3.8,0-6.7-1.1-8.7-3.4c-2-2.3-2.9-5.6-2.9-9.9v-22.5h9.8v21.9c0,2.3,0.4,3.9,1.3,4.8
				c0.9,1,2.2,1.5,3.9,1.5c2.3,0,4-0.8,5.1-2.4c1.2-1.6,1.7-3.8,1.7-6.6v-19.2h9.8V1489.3z"/>
			<path fill="#FFFFFF" d="M2654.6,1471.1l12.7,18.2h-10.7l-7.3-11.5l-7.3,11.5h-10.3l12.7-17.8l-11.8-17.1h10.7l6.6,10.9l6.3-10.9
				h10.3L2654.6,1471.1z"/>
			<path fill="#FFFFFF" d="M2675.4,1439.7l-0.6,4.6l3.9-2.1l1.4,3.7l-4.3,1.2l3.4,3.6l-3.3,2.4l-2.7-4.3l-2.7,4.3l-3.3-2.4l3.4-3.7
				l-4.2-1.2l1.4-3.7l3.8,2.1l-0.5-4.5H2675.4z"/>
			<path fill="#FFFFFF" d="M2331.1,1513.5h15.2c5.3,0,9.4,1.3,12.2,3.8c2.8,2.5,4.2,6.1,4.2,10.7c0,4.7-1.4,8.3-4.2,10.8
				c-2.8,2.6-6.9,3.8-12.2,3.8h-11.1v18.6h-4.1V1513.5z M2335.3,1538.8h11.1c4.1,0,7.1-0.9,9.1-2.7c2-1.8,3-4.5,3-8.3
				c0-3.7-1-6.5-3-8.2c-2-1.7-5-2.6-9.1-2.6h-11.1V1538.8z"/>
			<path fill="#FFFFFF" d="M2370.4,1526.8h2.1c1.3,0,1.9,0.6,1.9,1.9v4.6c1-2.3,2.5-4,4.5-5.1c2-1.2,4.3-1.8,7-1.8
				c0.6,0,1.2,0,1.7,0.1c0.5,0,0.9,0.1,1.2,0.2v3.3h-2.4c-4.1,0-7.1,1.3-9.1,3.8c-2,2.5-3,6.4-3,11.6v15.9h-4.1V1526.8z"/>
			<path fill="#FFFFFF" d="M2406.9,1562.1c-2.5,0-4.7-0.4-6.7-1.3c-2-0.9-3.7-2.1-5.1-3.6c-1.4-1.6-2.5-3.5-3.3-5.7
				c-0.8-2.2-1.2-4.7-1.2-7.5s0.4-5.3,1.2-7.5c0.8-2.2,1.9-4.1,3.3-5.7c1.4-1.5,3.1-2.7,5.1-3.6c2-0.9,4.3-1.3,6.7-1.3
				c2.5,0,4.7,0.4,6.7,1.3c2,0.9,3.7,2.1,5.2,3.6c1.4,1.5,2.5,3.4,3.3,5.7c0.8,2.2,1.2,4.7,1.2,7.5s-0.4,5.3-1.2,7.5
				c-0.8,2.2-1.9,4.1-3.3,5.7c-1.4,1.6-3.1,2.8-5.2,3.6C2411.7,1561.6,2409.4,1562.1,2406.9,1562.1z M2394.8,1543.9
				c0,4.6,1.1,8.2,3.2,10.7c2.2,2.5,5.1,3.8,8.9,3.8c3.8,0,6.8-1.3,8.9-3.8c2.2-2.5,3.2-6.1,3.2-10.7c0-4.6-1.1-8.2-3.2-10.6
				c-2.2-2.5-5.1-3.7-8.9-3.7c-3.8,0-6.8,1.2-8.9,3.7C2395.9,1535.8,2394.8,1539.3,2394.8,1543.9z"/>
			<path fill="#FFFFFF" d="M2425.1,1572.6c2.1,0,3.6-0.3,4.5-1c0.9-0.7,1.3-2,1.3-3.9v-40.9h4.1v41.1c0,2.8-0.7,4.8-2.2,6.2
				c-1.5,1.4-3.6,2-6.4,2c-0.9,0-1.7-0.1-2.4-0.2v-3.3H2425.1z M2430.5,1513.3h4.8v5.3h-4.8V1513.3z"/>
			<path fill="#FFFFFF" d="M2446.5,1544.5c0,4.3,1.1,7.7,3.4,10.2c2.3,2.5,5.5,3.7,9.6,3.7c1.7,0,3.3-0.2,4.9-0.7
				c1.6-0.4,3.1-1.2,4.4-2.2l1.8,2.9c-1.1,0.9-2.6,1.8-4.5,2.5c-1.9,0.8-4.1,1.1-6.7,1.1c-2.8,0-5.2-0.4-7.3-1.3
				c-2.1-0.9-3.9-2.1-5.3-3.7c-1.4-1.6-2.5-3.5-3.2-5.7c-0.7-2.2-1.1-4.7-1.1-7.5c0-2.7,0.4-5.1,1.1-7.3c0.7-2.2,1.8-4.1,3.2-5.7
				c1.4-1.6,3.1-2.8,5-3.7c2-0.9,4.2-1.3,6.7-1.3c2.3,0,4.2,0.4,5.9,1.1c1.7,0.8,3.1,1.8,4.2,3.1c1.1,1.3,1.9,2.9,2.5,4.7
				c0.6,1.8,0.8,3.7,0.8,5.8c0,1.4-0.1,2.7-0.3,3.9H2446.5z M2458.5,1529.5c-3.5,0-6.2,1.1-8.3,3.2c-2.1,2.1-3.3,5-3.6,8.5h21.4
				v-1.2c0-3.3-0.8-5.9-2.4-7.7C2464,1530.4,2461.6,1529.5,2458.5,1529.5z"/>
			<path fill="#FFFFFF" d="M2493.8,1562.1c-2.1,0-4.2-0.3-6.2-1c-2-0.6-3.8-1.7-5.3-3.1c-1.5-1.4-2.8-3.3-3.7-5.5
				c-0.9-2.3-1.4-5-1.4-8.2c0-2.8,0.4-5.3,1.1-7.5c0.8-2.3,1.9-4.2,3.3-5.8c1.5-1.6,3.2-2.8,5.3-3.7c2.1-0.9,4.5-1.3,7.2-1.3
				c1.9,0,3.8,0.3,5.6,0.8c1.8,0.5,3.3,1.3,4.5,2.4l-1.8,2.9c-0.9-0.6-1.9-1.2-3.2-1.7c-1.3-0.5-2.9-0.7-4.8-0.7
				c-4.2,0-7.5,1.3-9.7,3.8c-2.2,2.5-3.3,6.1-3.3,10.8c0,2.5,0.3,4.6,0.9,6.4c0.6,1.8,1.5,3.3,2.6,4.4c1.1,1.2,2.5,2,4,2.6
				c1.6,0.6,3.3,0.8,5.1,0.8c1.8,0,3.3-0.2,4.8-0.7c1.4-0.4,2.6-1,3.7-1.8l1.7,2.9c-1.2,0.9-2.7,1.7-4.6,2.3
				C2497.9,1561.8,2496,1562.1,2493.8,1562.1z"/>
			<path fill="#FFFFFF" d="M2516.9,1530.2v20.7c0,2.7,0.5,4.5,1.6,5.5c1.1,1,3,1.5,5.7,1.5h1.8v3.3c-0.8,0.1-1.8,0.2-3.1,0.2
				c-3.5,0-6.1-0.8-7.7-2.5c-1.6-1.7-2.4-4.3-2.4-7.9v-20.7h-6.3v-3.4h6.3v-8.9h4.1v8.9h9.1v3.4H2516.9z"/>
		</g>
		<g>
			<path fill="#8C9196" d="M2336.9,1597.3v2h-3.7v11.8h-2.5v-11.8h-2.4v-2h2.4v-1.5c0-1.5,0.4-2.6,1.3-3.4c0.8-0.8,2-1.2,3.5-1.2
				c0.3,0,0.6,0,0.9,0c0.3,0,0.5,0.1,0.7,0.1v1.9h-0.4c-0.6,0-1,0-1.5,0.1c-0.4,0.1-0.8,0.2-1.1,0.4c-0.3,0.2-0.5,0.5-0.7,0.8
				c-0.2,0.4-0.2,0.8-0.2,1.4v1.4H2336.9z"/>
			<path fill="#8C9196" d="M2351.1,1604.2c0,1.1-0.2,2.1-0.5,3c-0.3,0.9-0.8,1.7-1.4,2.3c-0.6,0.6-1.3,1.1-2.2,1.5
				c-0.8,0.4-1.8,0.5-2.8,0.5c-1,0-2-0.2-2.8-0.5c-0.8-0.3-1.6-0.8-2.1-1.5c-0.6-0.6-1.1-1.4-1.4-2.3c-0.3-0.9-0.5-1.9-0.5-3
				c0-1.1,0.2-2.1,0.5-3c0.3-0.9,0.8-1.7,1.4-2.3c0.6-0.6,1.3-1.1,2.1-1.5c0.8-0.4,1.8-0.5,2.8-0.5c1,0,1.9,0.2,2.8,0.5
				c0.8,0.4,1.6,0.8,2.2,1.5c0.6,0.6,1.1,1.4,1.4,2.3C2350.9,1602.1,2351.1,1603.1,2351.1,1604.2z M2348.5,1604.2
				c0-1.6-0.4-2.9-1.1-3.8c-0.7-0.9-1.8-1.3-3.2-1.3c-1.4,0-2.4,0.4-3.2,1.3c-0.7,0.9-1.1,2.2-1.1,3.8c0,1.6,0.4,2.9,1.1,3.8
				c0.7,0.9,1.8,1.3,3.2,1.3c1.4,0,2.4-0.4,3.2-1.3C2348.1,1607.1,2348.5,1605.8,2348.5,1604.2z"/>
			<path fill="#8C9196" d="M2353.9,1597.3h1.3c0.8,0,1.1,0.3,1.1,1v1.3c0.4-0.8,0.9-1.4,1.7-1.9c0.7-0.4,1.6-0.7,2.6-0.7
				c0.3,0,0.5,0,0.7,0s0.4,0.1,0.5,0.1v2h-0.9c-1.5,0-2.7,0.4-3.4,1.2c-0.7,0.8-1.1,2.1-1.1,4v6.7h-2.5V1597.3z"/>
			<path fill="#8C9196" d="M2372.4,1611.1h-2.6V1592h2.6V1611.1z"/>
			<path fill="#8C9196" d="M2378.7,1599.3c0.4-0.8,1-1.4,1.8-1.8c0.8-0.4,1.8-0.6,2.9-0.6c1.6,0,2.8,0.5,3.6,1.4
				c0.8,0.9,1.3,2.2,1.3,4v8.8h-2.5v-8.6c0-1.2-0.2-2.1-0.7-2.6c-0.5-0.6-1.3-0.8-2.3-0.8c-1.2,0-2.2,0.4-2.9,1.2
				c-0.7,0.8-1.1,2-1.1,3.5v7.4h-2.5v-13.8h1.3c0.8,0,1.1,0.3,1.1,1V1599.3z"/>
			<path fill="#8C9196" d="M2398.2,1611.1c-0.2,0-0.5,0.1-0.7,0.1c-0.2,0-0.5,0-0.8,0c-1.5,0-2.7-0.4-3.4-1.1c-0.7-0.7-1-2-1-3.6
				v-7.2h-2.4v-2h2.4v-3.5h2.5v3.5h3.5v2h-3.5v7.5c0,0.9,0.2,1.6,0.6,1.9c0.4,0.3,1.1,0.5,2.1,0.5h0.7V1611.1z"/>
			<path fill="#8C9196" d="M2402.1,1604.7c0.1,1.5,0.5,2.6,1.3,3.4c0.8,0.8,1.9,1.2,3.4,1.2c1.4,0,2.6-0.4,3.5-1.1l1.1,1.6
				c-0.6,0.6-1.3,1-2.1,1.2c-0.8,0.3-1.7,0.4-2.6,0.4c-1.1,0-2-0.2-2.9-0.5c-0.9-0.3-1.6-0.8-2.2-1.4c-0.6-0.6-1.1-1.4-1.4-2.3
				c-0.3-0.9-0.5-2-0.5-3.2c0-1.1,0.2-2.1,0.5-3c0.3-0.9,0.8-1.6,1.4-2.2c0.6-0.6,1.3-1.1,2.1-1.4c0.8-0.3,1.7-0.5,2.6-0.5
				c0.9,0,1.8,0.2,2.5,0.5c0.7,0.3,1.3,0.7,1.8,1.3c0.5,0.6,0.8,1.2,1.1,2c0.2,0.8,0.4,1.6,0.4,2.5c0,0.6,0,1.1-0.1,1.6H2402.1z
				 M2406.3,1598.9c-1.1,0-2.1,0.4-2.8,1.1c-0.7,0.7-1.2,1.7-1.3,2.9h7.5v-0.2c0-1.2-0.3-2.1-0.9-2.7
				C2408.2,1599.3,2407.3,1598.9,2406.3,1598.9z"/>
			<path fill="#8C9196" d="M2417.1,1591.3v16.1c0,0.8,0.1,1.3,0.4,1.5c0.2,0.2,0.7,0.3,1.4,0.3h0.2v1.9c-0.2,0-0.3,0.1-0.5,0.1
				c-0.2,0-0.4,0-0.6,0c-1.1,0-1.9-0.3-2.5-0.9c-0.5-0.6-0.8-1.5-0.8-2.8v-16.2H2417.1z"/>
			<path fill="#8C9196" d="M2430,1595.6c0,0.7-0.1,1.3-0.3,1.9c-0.2,0.6-0.6,1-1,1.4c-0.4,0.4-0.9,0.7-1.5,0.9
				c-0.6,0.2-1.2,0.3-1.8,0.3s-1.3-0.1-1.8-0.3c-0.6-0.2-1.1-0.5-1.5-0.9c-0.4-0.4-0.7-0.9-1-1.4c-0.2-0.6-0.3-1.2-0.3-1.9
				c0-0.7,0.1-1.3,0.3-1.9c0.2-0.6,0.6-1,1-1.4c0.4-0.4,0.9-0.7,1.5-0.9c0.6-0.2,1.2-0.3,1.8-0.3s1.3,0.1,1.8,0.3
				c0.6,0.2,1.1,0.5,1.5,0.9c0.4,0.4,0.7,0.9,1,1.4C2429.9,1594.3,2430,1594.9,2430,1595.6z M2421.8,1595.6c0,1.1,0.3,2,1,2.6
				s1.5,1,2.5,1s1.9-0.3,2.5-1c0.6-0.6,1-1.5,1-2.6c0-1.1-0.3-2-1-2.6c-0.6-0.6-1.5-1-2.5-1s-1.9,0.3-2.5,1
				C2422.2,1593.6,2421.8,1594.5,2421.8,1595.6z M2427.6,1597.8h-1.2l-1.1-1.5c-0.1-0.1-0.2-0.2-0.3-0.2c-0.1,0-0.2-0.1-0.3-0.1v1.8
				h-1.1v-4.6h1.9c0.6,0,1,0.1,1.3,0.3c0.3,0.2,0.5,0.6,0.5,1c0,0.4-0.1,0.7-0.3,0.9c-0.2,0.2-0.5,0.4-0.8,0.4L2427.6,1597.8z
				 M2425.2,1595.3c0.6,0,0.9-0.2,0.9-0.7c0-0.3-0.1-0.4-0.2-0.5c-0.2-0.1-0.4-0.1-0.8-0.1h-0.4v1.4H2425.2z"/>
			<path fill="#8C9196" d="M2449.5,1605.8h-8.2l-1.9,5.3h-2.5l7.3-19.1h2.7l7.3,19.1h-2.7L2449.5,1605.8z M2442.2,1603.7h6.6
				l-3.3-8.9L2442.2,1603.7z"/>
			<path fill="#8C9196" d="M2456,1597.3h1.3c0.8,0,1.1,0.3,1.1,1v1.3c0.4-0.8,0.9-1.4,1.7-1.9c0.7-0.4,1.6-0.7,2.6-0.7
				c0.3,0,0.5,0,0.7,0c0.2,0,0.4,0.1,0.5,0.1v2h-0.9c-1.5,0-2.7,0.4-3.4,1.2c-0.7,0.8-1.1,2.1-1.1,4v6.7h-2.5V1597.3z"/>
			<path fill="#8C9196" d="M2466.9,1604.1c0,1.7,0.4,2.9,1.2,3.8c0.8,0.9,2,1.3,3.4,1.3c0.5,0,1.1-0.1,1.6-0.2
				c0.6-0.1,1.1-0.4,1.5-0.7l1,1.7c-1.1,0.9-2.6,1.4-4.4,1.4c-1.2,0-2.2-0.2-3.1-0.6c-0.9-0.4-1.6-0.9-2.2-1.5
				c-0.6-0.6-1-1.4-1.3-2.3c-0.3-0.9-0.4-1.8-0.4-2.9c0-1.1,0.2-2.1,0.5-3c0.3-0.9,0.8-1.7,1.4-2.3c0.6-0.6,1.4-1.1,2.2-1.5
				c0.9-0.4,1.9-0.5,3-0.5c1.7,0,3.1,0.4,4.2,1.3l-1,1.7c-0.3-0.2-0.8-0.5-1.3-0.6c-0.5-0.2-1.1-0.3-1.8-0.3c-1.4,0-2.6,0.4-3.4,1.3
				C2467.4,1601.2,2466.9,1602.5,2466.9,1604.1z"/>
			<path fill="#8C9196" d="M2480.4,1591.3v8c0.4-0.7,1-1.3,1.8-1.7c0.8-0.4,1.7-0.6,2.8-0.6c1.6,0,2.8,0.5,3.6,1.4
				c0.8,0.9,1.3,2.2,1.3,4v8.8h-2.5v-8.6c0-1.2-0.2-2.1-0.7-2.6c-0.5-0.6-1.3-0.8-2.3-0.8c-1.2,0-2.2,0.4-2.9,1.2s-1.1,2-1.1,3.5
				v7.4h-2.5v-19.8H2480.4z"/>
			<path fill="#8C9196" d="M2493.5,1591.7h2.6v2.8h-2.6V1591.7z M2496,1611.1h-2.5v-13.8h2.5V1611.1z"/>
			<path fill="#8C9196" d="M2506.3,1611.1c-0.2,0-0.5,0.1-0.7,0.1s-0.5,0-0.8,0c-1.5,0-2.7-0.4-3.4-1.1c-0.7-0.7-1-2-1-3.6v-7.2
				h-2.4v-2h2.4v-3.5h2.5v3.5h3.5v2h-3.5v7.5c0,0.9,0.2,1.6,0.6,1.9c0.4,0.3,1.1,0.5,2.1,0.5h0.7V1611.1z"/>
			<path fill="#8C9196" d="M2510.2,1604.7c0.1,1.5,0.5,2.6,1.3,3.4c0.8,0.8,1.9,1.2,3.4,1.2c1.4,0,2.6-0.4,3.5-1.1l1.1,1.6
				c-0.6,0.6-1.3,1-2.1,1.2c-0.8,0.3-1.7,0.4-2.6,0.4c-1.1,0-2-0.2-2.9-0.5c-0.9-0.3-1.6-0.8-2.2-1.4c-0.6-0.6-1.1-1.4-1.4-2.3
				c-0.3-0.9-0.5-2-0.5-3.2c0-1.1,0.2-2.1,0.5-3c0.3-0.9,0.8-1.6,1.4-2.2c0.6-0.6,1.3-1.1,2.1-1.4c0.8-0.3,1.7-0.5,2.6-0.5
				c0.9,0,1.8,0.2,2.5,0.5c0.7,0.3,1.3,0.7,1.8,1.3c0.5,0.6,0.8,1.2,1.1,2c0.2,0.8,0.4,1.6,0.4,2.5c0,0.6,0,1.1-0.1,1.6H2510.2z
				 M2514.4,1598.9c-1.1,0-2.1,0.4-2.8,1.1c-0.7,0.7-1.2,1.7-1.3,2.9h7.5v-0.2c0-1.2-0.3-2.1-0.9-2.7
				C2516.3,1599.3,2515.5,1598.9,2514.4,1598.9z"/>
			<path fill="#8C9196" d="M2524.5,1604.1c0,1.7,0.4,2.9,1.2,3.8c0.8,0.9,2,1.3,3.4,1.3c0.5,0,1.1-0.1,1.6-0.2
				c0.6-0.1,1.1-0.4,1.5-0.7l1,1.7c-1.1,0.9-2.6,1.4-4.4,1.4c-1.2,0-2.2-0.2-3.1-0.6c-0.9-0.4-1.6-0.9-2.2-1.5
				c-0.6-0.6-1-1.4-1.3-2.3c-0.3-0.9-0.4-1.8-0.4-2.9c0-1.1,0.2-2.1,0.5-3c0.3-0.9,0.8-1.7,1.4-2.3c0.6-0.6,1.4-1.1,2.2-1.5
				c0.9-0.4,1.9-0.5,3-0.5c1.7,0,3.1,0.4,4.2,1.3l-1,1.7c-0.3-0.2-0.8-0.5-1.3-0.6c-0.5-0.2-1.1-0.3-1.8-0.3c-1.4,0-2.6,0.4-3.4,1.3
				C2524.9,1601.2,2524.5,1602.5,2524.5,1604.1z"/>
			<path fill="#8C9196" d="M2542.4,1611.1c-0.2,0-0.5,0.1-0.7,0.1c-0.2,0-0.5,0-0.8,0c-1.5,0-2.7-0.4-3.4-1.1c-0.7-0.7-1-2-1-3.6
				v-7.2h-2.4v-2h2.4v-3.5h2.5v3.5h3.5v2h-3.5v7.5c0,0.9,0.2,1.6,0.6,1.9c0.4,0.3,1.1,0.5,2.1,0.5h0.7V1611.1z"/>
			<path fill="#8C9196" d="M2556.3,1611.1h-1.2c-0.8,0-1.1-0.3-1.1-1v-1.1c-0.3,0.6-0.9,1.2-1.6,1.7c-0.7,0.5-1.7,0.7-2.8,0.7
				c-1.6,0-2.8-0.5-3.7-1.4c-0.9-1-1.3-2.3-1.3-4.1v-8.7h2.5v8.5c0,1.2,0.2,2.1,0.7,2.7c0.5,0.6,1.2,0.9,2.2,0.9
				c1.2,0,2.2-0.4,2.9-1.3c0.7-0.8,1.1-2,1.1-3.5v-7.2h2.5V1611.1z"/>
			<path fill="#8C9196" d="M2559.9,1597.3h1.3c0.8,0,1.1,0.3,1.1,1v1.3c0.4-0.8,0.9-1.4,1.7-1.9c0.7-0.4,1.6-0.7,2.6-0.7
				c0.3,0,0.5,0,0.7,0c0.2,0,0.4,0.1,0.5,0.1v2h-0.9c-1.5,0-2.7,0.4-3.4,1.2c-0.7,0.8-1.1,2.1-1.1,4v6.7h-2.5V1597.3z"/>
			<path fill="#8C9196" d="M2570.7,1604.7c0.1,1.5,0.5,2.6,1.3,3.4c0.8,0.8,1.9,1.2,3.4,1.2c1.4,0,2.6-0.4,3.5-1.1l1.1,1.6
				c-0.6,0.6-1.3,1-2.1,1.2c-0.8,0.3-1.7,0.4-2.6,0.4c-1.1,0-2-0.2-2.9-0.5c-0.9-0.3-1.6-0.8-2.2-1.4c-0.6-0.6-1.1-1.4-1.4-2.3
				c-0.3-0.9-0.5-2-0.5-3.2c0-1.1,0.2-2.1,0.5-3c0.3-0.9,0.8-1.6,1.4-2.2c0.6-0.6,1.3-1.1,2.1-1.4c0.8-0.3,1.7-0.5,2.6-0.5
				c0.9,0,1.8,0.2,2.5,0.5c0.7,0.3,1.3,0.7,1.8,1.3s0.8,1.2,1.1,2c0.2,0.8,0.4,1.6,0.4,2.5c0,0.6,0,1.1-0.1,1.6H2570.7z
				 M2574.9,1598.9c-1.1,0-2.1,0.4-2.8,1.1c-0.7,0.7-1.2,1.7-1.3,2.9h7.5v-0.2c0-1.2-0.3-2.1-0.9-2.7
				C2576.8,1599.3,2576,1598.9,2574.9,1598.9z"/>
		</g>
		<g>
			<linearGradient id="SVGID_1_" gradientUnits="userSpaceOnUse" x1="2240.6255" y1="1448.9695" x2="2213.7695" y2="1455.2856">
				<stop  offset="0" style="stop-color:#7FD1F5"/>
				<stop  offset="1" style="stop-color:#B3E3F9"/>
			</linearGradient>
			<polygon fill="url(#SVGID_1_)" points="2250.1,1517.3 2229,1392.9 2195.2,1389.2 			"/>
			<linearGradient id="SVGID_2_" gradientUnits="userSpaceOnUse" x1="2231.636" y1="1365.2546" x2="2314.4719" y2="1396.0964">
				<stop  offset="0" style="stop-color:#3EBDEE"/>
				<stop  offset="0.75" style="stop-color:#92D1B2"/>
			</linearGradient>
			<polygon fill="url(#SVGID_2_)" points="2227.9,1373.3 2310.7,1401.9 2234,1356.7 			"/>
			<linearGradient id="SVGID_3_" gradientUnits="userSpaceOnUse" x1="2213.2434" y1="1371.8328" x2="2222.7788" y2="1379.9773">
				<stop  offset="0" style="stop-color:#7FD1F5"/>
				<stop  offset="1" style="stop-color:#B3E3F9"/>
			</linearGradient>
			<polygon fill="url(#SVGID_3_)" points="2195.1,1389.2 2227.9,1373.3 2234,1356.7 			"/>
			<linearGradient id="SVGID_4_" gradientUnits="userSpaceOnUse" x1="2200.6936" y1="1373.6002" x2="2247.592" y2="1406.6758">
				<stop  offset="0" style="stop-color:#3EBDEE"/>
				<stop  offset="0.85" style="stop-color:#92D1B2"/>
			</linearGradient>
			<polygon fill="url(#SVGID_4_)" points="2195.1,1389.2 2251.8,1395.3 2227.9,1373.3 			"/>
			<polygon fill="#2370B8" points="2251.8,1395.3 2310.7,1401.9 2227.9,1373.3 			"/>
			<linearGradient id="SVGID_5_" gradientUnits="userSpaceOnUse" x1="2223.3716" y1="1450.9065" x2="2197.1677" y2="1530.7195">
				<stop  offset="0" style="stop-color:#47A7DE"/>
				<stop  offset="1" style="stop-color:#92D1B2"/>
			</linearGradient>
			<polygon fill="url(#SVGID_5_)" points="2178.2,1534.1 2250.1,1517.2 2195.1,1389.2 			"/>
			<linearGradient id="SVGID_6_" gradientUnits="userSpaceOnUse" x1="2220.3877" y1="1521.7051" x2="2220.3877" y2="1542.4269">
				<stop  offset="0" style="stop-color:#D2D3D5"/>
				<stop  offset="1" style="stop-color:#F6F7F8"/>
			</linearGradient>
			<polygon fill="url(#SVGID_6_)" points="2250.1,1517.2 2262.6,1546.1 2178.2,1534.1 			"/>
			<linearGradient id="SVGID_7_" gradientUnits="userSpaceOnUse" x1="2181.4221" y1="1539.6709" x2="2244.5837" y2="1500.1715">
				<stop  offset="0" style="stop-color:#F6F7F8;stop-opacity:0.4"/>
				<stop  offset="1" style="stop-color:#F1F2F4;stop-opacity:0"/>
			</linearGradient>
			<polygon fill="url(#SVGID_7_)" points="2250.1,1517.2 2236.2,1484.9 2178.2,1534.1 			"/>
			<linearGradient id="SVGID_8_" gradientUnits="userSpaceOnUse" x1="2220.3877" y1="1539.7377" x2="2220.3877" y2="1554.5103">
				<stop  offset="0" style="stop-color:#D2D3D5"/>
				<stop  offset="1" style="stop-color:#F6F7F8"/>
			</linearGradient>
			<polygon fill="url(#SVGID_8_)" points="2262.6,1546.1 2238.9,1561.8 2178.2,1534.1 			"/>
			<linearGradient id="SVGID_9_" gradientUnits="userSpaceOnUse" x1="2197.0964" y1="1422.161" x2="2285.3447" y2="1493.5531">
				<stop  offset="8.000000e-02" style="stop-color:#FCB717"/>
				<stop  offset="0.35" style="stop-color:#FEE867"/>
				<stop  offset="0.75" style="stop-color:#F6F7F8"/>
				<stop  offset="1" style="stop-color:#F1F2F4"/>
			</linearGradient>
			<polygon fill="url(#SVGID_9_)" points="2251.7,1395.3 2288.3,1488.4 2262.5,1546.1 2250.1,1517.2 2228.9,1392.8 			"/>
		</g>
	</g>
</g>
</svg>
